<?xml version="1.0" encoding="utf-8"?>
<!-- Generator: Adobe Illustrator 22.1.0, SVG Export Plug-In . SVG Version: 6.00 Build 0)  -->
<svg version="1.1" xmlns="http://www.w3.org/2000/svg" xmlns:xlink="http://www.w3.org/1999/xlink" x="0px" y="0px"
	 viewBox="0 0 595.3 841.9" style="enable-background:new 0 0 595.3 841.9;" xml:space="preserve">
<style type="text/css">
	.st0{fill:#1C75BC;}
	.st1{fill:#30B5E4;}
	.st2{fill:#DCDDDE;}
	.st3{fill:#FAB698;}
	.st4{fill:#F1F1F2;}
	.st5{fill:#FFFFFF;}
	.st6{fill:none;}
	.st7{fill:#0082BA;}
	.st8{fill:#1C1C1C;}
	.st9{fill:#A6D4E8;}
	.st10{fill:#939598;}
	.st11{fill:#58595B;}
</style>
<g id="Layer_2">
	<path class="st0" d="M595.3,407v-5.7v-14.2v-59.6V251H17c0,0-8.5,0-8.5,8.5c0,0,0-8.5-8.5-8.5v136.2v14.2v5.7
		c8.5,0,8.5,8.5,8.5,8.5c0-8.5,8.5-8.5,8.5-8.5H595.3z"/>
	<path class="st1" d="M595.3,654.1v-5.7v-14.2V407H17c0,0-8.5,0-8.5,8.5c0,0,0-8.5-8.5-8.5v227.2v14.2v5.7c8.5,0,8.5,8.5,8.5,8.5
		c0-8.5,8.5-8.5,8.5-8.5H595.3z"/>
	<path class="st2" d="M595.3,251v-15.4v-4.4V82.1H306c0,0-8.5,0-8.5,8.5c0,0,0-8.5-8.5-8.5h-13.2H17c0,0-8.5,0-8.5,8.5
		c0,0,0-8.5-8.5-8.5v91.3v57.5v0.2v4.4V251c8.5,0,8.5,8.5,8.5,8.5c0-8.5,8.5-8.5,8.5-8.5H595.3z"/>
	<path class="st3" d="M595.3,841.9V654.1H17c0,0-8.5,0-8.5,8.5c0,0,0-8.5-8.5-8.5v187.8H595.3z"/>
</g>
<g id="Layer_5">
	<path class="st4" d="M26.9,123c0,0-8.5,0-8.5,8.5v100.9c0,0,0,8.5,8.5,8.5h252.3c0,0,8.5,0,8.5-8.5V131.5c0,0,0-8.5-8.5-8.5H26.9z"
		/>
	<path class="st4" d="M316.1,123c0,0-8.5,0-8.5,8.5v100.9c0,0,0,8.5,8.5,8.5h252.3c0,0,8.5,0,8.5-8.5V131.5c0,0,0-8.5-8.5-8.5H316.1
		z"/>
	<path class="st4" d="M26.9,290.4c0,0-8.5,0-8.5,8.5v89.3c0,0,0,8.5,8.5,8.5h541.6c0,0,8.5,0,8.5-8.5v-89.3c0,0,0-8.5-8.5-8.5H26.9z
		"/>
	<path class="st4" d="M26.9,693.4c0,0-8.5,0-8.5,8.5v89.3c0,0,0,8.5,8.5,8.5H428c0,0,8.5,0,8.5-8.5v-89.3c0,0,0-8.5-8.5-8.5H26.9z"
		/>
	<path class="st5" d="M454.1,668.4c0,0-8.5,0-8.5,8.5v114.3c0,0,0,8.5,8.5,8.5h114.3c0,0,8.5,0,8.5-8.5V676.9c0,0,0-8.5-8.5-8.5
		H454.1z"/>
	<path class="st4" d="M26.9,446.1c0,0-8.5,0-8.5,8.5v180.7c0,0,0,8.5,8.5,8.5h541.6c0,0,8.5,0,8.5-8.5V454.6c0,0,0-8.5-8.5-8.5H26.9
		z"/>
	<rect class="st6" width="595.3" height="841.9"/>
</g>
<g id="Layer_4">
	<path class="st0" d="M34.3,54.6c-0.7,0.2,3-0.8,7.6-2.9c7.6-3.5,15-6.8,15.6-8.8c0.9-2.9-5.4-9.8-5.4-9.8l15.1-5.5
		c0,0,7.9,11.2,4.2,17.2c-1.3,2.1-3.9,2.7-7.8,4c-6,1.9-13.7,3.8-19.9,4.8C38.4,54.4,34.3,54.6,34.3,54.6 M196.2,36.4l-2.2-6.5
		l-2.2,6.5H196.2z M198.7,43l-0.3-0.3l-1.3-3.7h-6.2l-1.2,3.7l-0.3,0.3h-2.3l-0.3-0.5l5.7-16.1l0.3-0.3l2.3-0.3l0.4,0.2l5.8,16.4
		L201,43H198.7z M184.7,43l0.3-0.3V26.1l-0.4-0.3l-2.1,0.3l-0.3,0.4v11.3L174.5,26l-0.4-0.2l-2.1,0.3l-0.3,0.4v16.2l0.3,0.3h2.1
		l0.3-0.3V31l7.8,11.8l0.4,0.2H184.7z M161.9,40.3c2.5,0,3.9-1.4,3.9-3.8v-4c0-2.4-1.4-3.8-3.9-3.8h-3.1v11.6H161.9z M156.4,43
		l-0.3-0.3V26.3l0.3-0.3h5.5c4.1,0,6.7,2.4,6.7,6.3v4.4c0,3.9-2.5,6.3-6.7,6.3H156.4z"/>
	<g>
		<path class="st7" d="M108.1,780.4c-0.4,0.1-1.1,0.3-2,0.3c-1,0-1.8-0.3-2.4-0.8c-0.5-0.5-0.9-1.3-0.8-2.2c0-1.9,1.4-3.2,3.4-3.2
			c0.7,0,1.3,0.2,1.6,0.3l-0.2,0.9c-0.3-0.1-0.7-0.3-1.4-0.3c-1.3,0-2.2,0.8-2.2,2.2c0,1.4,0.8,2.2,2.1,2.2c0.4,0,0.7-0.1,0.8-0.1
			v-1.5h-1.1v-0.9h2.1V780.4z"/>
		<path class="st7" d="M111.9,778c0-0.4-0.2-1.1-0.9-1.1c-0.7,0-1,0.6-1,1.1H111.9z M110,778.8c0,0.8,0.6,1.1,1.4,1.1
			c0.5,0,0.9-0.1,1.2-0.2l0.2,0.8c-0.4,0.2-0.9,0.3-1.5,0.3c-1.4,0-2.3-0.9-2.3-2.2c0-1.2,0.7-2.4,2.1-2.4c1.4,0,1.9,1.2,1.9,2.1
			c0,0.2,0,0.4,0,0.5H110z"/>
		<path class="st7" d="M113.8,777.6c0-0.5,0-0.9,0-1.3h1l0.1,0.7h0c0.2-0.3,0.7-0.8,1.4-0.8c0.8,0,1.6,0.5,1.6,1.9v2.6h-1.1v-2.5
			c0-0.6-0.2-1.1-0.8-1.1c-0.4,0-0.7,0.3-0.9,0.7c0,0.1,0,0.2,0,0.4v2.6h-1.1V777.6z"/>
		<path class="st7" d="M121.7,778c0-0.4-0.2-1.1-0.9-1.1c-0.7,0-1,0.6-1,1.1H121.7z M119.8,778.8c0,0.8,0.6,1.1,1.4,1.1
			c0.5,0,0.9-0.1,1.2-0.2l0.2,0.8c-0.4,0.2-0.9,0.3-1.5,0.3c-1.4,0-2.3-0.9-2.3-2.2c0-1.2,0.7-2.4,2.1-2.4c1.4,0,1.9,1.2,1.9,2.1
			c0,0.2,0,0.4,0,0.5H119.8z"/>
		<path class="st7" d="M124.9,775v1.3h1.1v0.8h-1.1v1.9c0,0.5,0.1,0.8,0.6,0.8c0.2,0,0.3,0,0.4-0.1l0,0.8c-0.2,0.1-0.5,0.1-0.8,0.1
			c-0.4,0-0.7-0.1-1-0.4c-0.2-0.3-0.3-0.6-0.3-1.2v-2.1h-0.6v-0.8h0.6v-1L124.9,775z"/>
		<path class="st7" d="M126.8,776.2h1.1v4.4h-1.1V776.2z M128,775c0,0.3-0.2,0.6-0.6,0.6c-0.4,0-0.6-0.3-0.6-0.6
			c0-0.3,0.3-0.6,0.6-0.6C127.8,774.4,128,774.7,128,775"/>
		<path class="st7" d="M132.4,780.5c-0.2,0.1-0.7,0.2-1.2,0.2c-1.4,0-2.3-0.9-2.3-2.2c0-1.3,0.9-2.3,2.4-2.3c0.4,0,0.8,0.1,1.1,0.2
			l-0.2,0.8c-0.2-0.1-0.4-0.2-0.8-0.2c-0.8,0-1.4,0.6-1.3,1.4c0,0.9,0.6,1.4,1.3,1.4c0.4,0,0.7-0.1,0.9-0.2L132.4,780.5z"/>
		<path class="st7" d="M133.1,779.6c0.3,0.2,0.7,0.3,1.1,0.3c0.5,0,0.7-0.2,0.7-0.5c0-0.3-0.2-0.5-0.7-0.6c-0.9-0.3-1.2-0.8-1.2-1.3
			c0-0.8,0.6-1.4,1.7-1.4c0.5,0,0.9,0.1,1.2,0.3l-0.2,0.8c-0.2-0.1-0.5-0.3-0.9-0.3c-0.4,0-0.6,0.2-0.6,0.5c0,0.3,0.2,0.4,0.8,0.6
			c0.8,0.3,1.2,0.7,1.2,1.3c0,0.8-0.6,1.4-1.8,1.4c-0.5,0-1-0.1-1.3-0.3L133.1,779.6z"/>
		<path class="st8" d="M142,780.4c-0.2,0.1-0.6,0.3-1.3,0.3c-1.3,0-2.1-0.9-2.1-2.2c0-1.4,0.9-2.3,2.2-2.3c0.5,0,1,0.2,1.1,0.3
			l-0.2,0.4c-0.2-0.1-0.6-0.3-1-0.3c-1.2,0-1.8,0.9-1.8,1.9c0,1.1,0.7,1.9,1.7,1.9c0.5,0,0.8-0.1,1.1-0.2L142,780.4z"/>
		<path class="st8" d="M143.1,778.5c0,1.1,0.7,1.9,1.6,1.9c0.9,0,1.6-0.8,1.6-1.9c0-0.8-0.5-1.9-1.6-1.9
			C143.7,776.6,143.1,777.6,143.1,778.5 M146.8,778.4c0,1.6-1.1,2.3-2.1,2.3c-1.1,0-2-0.9-2-2.2c0-1.5,1-2.3,2-2.3
			C146,776.2,146.8,777.1,146.8,778.4"/>
		<path class="st8" d="M147.9,777.3c0-0.4,0-0.7,0-1h0.4l0,0.8h0c0.3-0.5,0.7-0.9,1.4-0.9c0.6,0,1.1,0.4,1.2,0.9h0
			c0.1-0.3,0.3-0.5,0.4-0.6c0.3-0.2,0.6-0.4,1-0.4c0.4,0,1.4,0.2,1.4,1.9v2.6h-0.4v-2.5c0-1-0.4-1.6-1.1-1.6c-0.5,0-1,0.4-1.1,0.9
			c0,0.1-0.1,0.3-0.1,0.4v2.8h-0.4v-2.7c0-0.8-0.4-1.4-1.1-1.4c-0.6,0-1,0.5-1.2,1c0,0.1-0.1,0.3-0.1,0.4v2.7h-0.4V777.3z"/>
		<path class="st8" d="M155.7,778.9c0,0.1,0,0.2,0,0.3c0.2,0.7,0.8,1.1,1.4,1.1c1,0,1.6-0.8,1.6-2c0-1-0.5-1.9-1.5-1.9
			c-0.6,0-1.2,0.4-1.4,1.2c0,0.1-0.1,0.3-0.1,0.4V778.9z M155.3,777.7c0-0.5,0-1,0-1.4h0.4l0,0.8h0c0.3-0.6,0.8-0.9,1.6-0.9
			c1.1,0,1.9,0.9,1.9,2.2c0,1.6-0.9,2.3-2,2.3c-0.6,0-1.2-0.3-1.5-0.8h0v2.5h-0.4V777.7z"/>
		<path class="st8" d="M162.5,778.3c-0.9,0-2.2,0.1-2.2,1.2c0,0.6,0.4,0.9,0.9,0.9c0.7,0,1.1-0.4,1.3-0.9c0-0.1,0-0.2,0-0.3V778.3z
			 M162.9,779.6c0,0.3,0,0.7,0.1,1h-0.4l-0.1-0.6h0c-0.2,0.3-0.7,0.7-1.4,0.7c-0.9,0-1.3-0.6-1.3-1.2c0-1,0.9-1.6,2.6-1.6v-0.1
			c0-0.4-0.1-1.3-1.1-1.3c-0.4,0-0.8,0.1-1.1,0.3l-0.1-0.3c0.4-0.3,0.9-0.4,1.3-0.4c1.3,0,1.5,0.9,1.5,1.7V779.6z"/>
		<path class="st8" d="M164.3,777.3c0-0.4,0-0.7,0-1h0.4l0,0.8h0c0.2-0.5,0.8-0.9,1.5-0.9c0.4,0,1.5,0.2,1.5,1.8v2.6h-0.4v-2.6
			c0-0.8-0.3-1.5-1.2-1.5c-0.6,0-1.1,0.4-1.3,1c0,0.1-0.1,0.3-0.1,0.4v2.7h-0.4V777.3z"/>
		<path class="st8" d="M168.9,776.3l1.1,2.8c0.1,0.3,0.2,0.6,0.3,0.9h0c0.1-0.3,0.2-0.6,0.3-1l1.1-2.8h0.5l-1.3,3.2
			c-0.5,1.3-0.9,2.1-1.5,2.6c-0.3,0.3-0.6,0.4-0.8,0.5l-0.1-0.4c0.2-0.1,0.5-0.2,0.8-0.5c0.2-0.2,0.5-0.6,0.7-1.1
			c0-0.1,0.1-0.1,0.1-0.2s0-0.1-0.1-0.2l-1.6-4H168.9z"/>
		<path class="st8" d="M38.1,762.4c0-0.2,0-0.4-0.1-0.6c-0.2-0.9-1-1.6-2-1.6c-1.4,0-2.3,1.2-2.3,2.9c0,1.5,0.7,2.8,2.3,2.8
			c0.9,0,1.8-0.6,2.1-1.7c0-0.2,0.1-0.3,0.1-0.5V762.4z M38.8,756.8v8.1c0,0.5,0,1.1,0.1,1.5h-0.6l0-1.2h0c-0.3,0.7-1.1,1.4-2.3,1.4
			c-1.6,0-2.8-1.3-2.8-3.3c0-2.2,1.3-3.5,2.9-3.5c1.1,0,1.8,0.6,2.1,1.1h0v-4.1H38.8z"/>
		<path class="st8" d="M41,761.8c0-0.6,0-1.3-0.1-1.9h0.6l0,1.3h0c0.3-0.8,1-1.5,1.8-1.5c0.1,0,0.2,0,0.3,0v0.6c-0.1,0-0.2,0-0.3,0
			c-0.9,0-1.5,0.8-1.7,1.8c0,0.2-0.1,0.4-0.1,0.6v3.6H41V761.8z"/>
		<path class="st8" d="M45.1,766.5c-0.3,0-0.5-0.3-0.5-0.6c0-0.4,0.2-0.6,0.6-0.6c0.3,0,0.5,0.3,0.5,0.6
			C45.7,766.2,45.4,766.5,45.1,766.5L45.1,766.5z"/>
		<path class="st8" d="M50,759.9l1.5,4c0.3,0.6,0.5,1.2,0.6,1.7h0c0.2-0.5,0.4-1.1,0.7-1.7l1.5-4h0.7l-2.6,6.5h-0.6l-2.5-6.5H50z"/>
		<path class="st8" d="M59.7,762.9c-1.4,0-3.3,0.2-3.3,1.7c0,0.9,0.6,1.3,1.3,1.3c1.1,0,1.7-0.7,1.9-1.3c0-0.1,0.1-0.3,0.1-0.4
			V762.9z M60.3,764.8c0,0.5,0,1,0.1,1.5h-0.6l-0.1-0.9h0c-0.3,0.5-1,1.1-2.1,1.1c-1.3,0-1.9-0.9-1.9-1.8c0-1.5,1.3-2.4,3.9-2.4
			v-0.2c0-0.6-0.1-1.9-1.7-1.9c-0.6,0-1.2,0.1-1.6,0.5l-0.2-0.5c0.6-0.4,1.3-0.6,1.9-0.6c1.9,0,2.2,1.4,2.2,2.6V764.8z"/>
		<path class="st8" d="M62.4,761.4c0-0.6,0-1-0.1-1.5H63L63,761h0c0.3-0.7,1.2-1.3,2.2-1.3c0.6,0,2.3,0.3,2.3,2.7v3.9h-0.6v-3.8
			c0-1.2-0.5-2.2-1.8-2.2c-0.9,0-1.7,0.6-1.9,1.5c-0.1,0.2-0.1,0.4-0.1,0.6v4h-0.6V761.4z"/>
		<path class="st8" d="M72.6,756.8h0.6v4.3h0c0.2-0.4,0.5-0.7,0.9-0.9c0.4-0.2,0.8-0.4,1.3-0.4c0.6,0,2.2,0.3,2.2,2.7v3.9h-0.6v-3.8
			c0-1.2-0.5-2.2-1.8-2.2c-0.9,0-1.7,0.7-2,1.5c-0.1,0.2-0.1,0.4-0.1,0.6v4h-0.6V756.8z"/>
		<path class="st8" d="M83.2,762.9c-1.4,0-3.3,0.2-3.3,1.7c0,0.9,0.6,1.3,1.3,1.3c1.1,0,1.7-0.7,1.9-1.3c0-0.1,0.1-0.3,0.1-0.4
			V762.9z M83.8,764.8c0,0.5,0,1,0.1,1.5h-0.6l-0.1-0.9h0c-0.3,0.5-1,1.1-2.1,1.1c-1.3,0-1.9-0.9-1.9-1.8c0-1.5,1.3-2.4,3.9-2.4
			v-0.2c0-0.6-0.1-1.9-1.7-1.9c-0.6,0-1.2,0.1-1.6,0.5l-0.2-0.5c0.6-0.4,1.3-0.6,1.9-0.6c1.9,0,2.2,1.4,2.2,2.6V764.8z"/>
		<path class="st8" d="M90.2,762.5c0-0.9-0.4-2.3-1.9-2.3c-1.4,0-2,1.3-2.2,2.3H90.2z M86,763c0,2.1,1.1,2.9,2.5,2.9
			c0.9,0,1.4-0.2,1.8-0.4l0.2,0.5c-0.2,0.1-0.9,0.4-2,0.4c-1.9,0-3-1.4-3-3.3c0-2.2,1.2-3.5,2.9-3.5c2.1,0,2.5,2,2.5,2.9
			c0,0.2,0,0.3,0,0.4H86z"/>
		<path class="st8" d="M92.5,761.8c0-0.6,0-1.3-0.1-1.9H93l0,1.3h0c0.3-0.8,1-1.5,1.8-1.5c0.1,0,0.2,0,0.3,0v0.6c-0.1,0-0.2,0-0.3,0
			c-0.9,0-1.5,0.8-1.7,1.8c0,0.2-0.1,0.4-0.1,0.6v3.6h-0.6V761.8z"/>
		<path class="st8" d="M96.5,759.9h0.6v6.5h-0.6V759.9z M97.3,758c0,0.3-0.2,0.6-0.5,0.6c-0.3,0-0.5-0.3-0.5-0.6s0.2-0.6,0.5-0.6
			C97.1,757.4,97.3,757.7,97.3,758"/>
		<path class="st8" d="M99.3,761.4c0-0.6,0-1-0.1-1.5h0.6l0.1,1.2h0c0.3-0.7,1.2-1.3,2.2-1.3c0.6,0,2.3,0.3,2.3,2.7v3.9h-0.6v-3.8
			c0-1.2-0.5-2.2-1.8-2.2c-0.9,0-1.7,0.6-1.9,1.5c-0.1,0.2-0.1,0.4-0.1,0.6v4h-0.6V761.4z"/>
		<path class="st8" d="M111,762.3c0-0.2,0-0.4-0.1-0.6c-0.3-0.8-1-1.5-2-1.5c-1.4,0-2.3,1.1-2.3,2.8c0,1.5,0.8,2.7,2.3,2.7
			c0.9,0,1.7-0.5,2-1.5c0.1-0.2,0.1-0.5,0.1-0.7V762.3z M111.6,765.4c0,1.7-0.3,2.5-0.9,3c-0.6,0.6-1.5,0.8-2.2,0.8
			c-0.7,0-1.6-0.2-2-0.6l0.2-0.5c0.4,0.3,1.1,0.5,1.9,0.5c1.4,0,2.3-0.7,2.3-2.6v-0.9h0c-0.3,0.7-1.1,1.3-2.3,1.3
			c-1.6,0-2.8-1.4-2.8-3.2c0-2.2,1.5-3.4,2.9-3.4c1.3,0,1.9,0.7,2.2,1.2h0l0-1.1h0.6c0,0.5-0.1,1-0.1,1.7V765.4z"/>
		<path class="st8" d="M118,762.5c0-0.9-0.4-2.3-1.9-2.3c-1.4,0-2,1.3-2.2,2.3H118z M113.9,763c0,2.1,1.1,2.9,2.5,2.9
			c0.9,0,1.4-0.2,1.8-0.4l0.2,0.5c-0.2,0.1-0.9,0.4-2,0.4c-1.9,0-3-1.4-3-3.3c0-2.2,1.2-3.5,2.9-3.5c2.1,0,2.5,2,2.5,2.9
			c0,0.2,0,0.3,0,0.4H113.9z"/>
		<path class="st8" d="M120.4,761.4c0-0.6,0-1-0.1-1.5h0.6l0.1,1.2h0c0.4-0.7,1.2-1.3,2.2-1.3c0.6,0,2.3,0.3,2.3,2.7v3.9h-0.6v-3.8
			c0-1.2-0.5-2.2-1.8-2.2c-0.9,0-1.7,0.6-1.9,1.5c-0.1,0.2-0.1,0.4-0.1,0.6v4h-0.6V761.4z"/>
		<rect x="130.5" y="756.8" class="st7" width="0.6" height="9.6"/>
		<path class="st7" d="M136.8,762.9c-1.4,0-3.3,0.2-3.3,1.7c0,0.9,0.6,1.3,1.3,1.3c1.1,0,1.7-0.7,1.9-1.3c0-0.1,0.1-0.3,0.1-0.4
			V762.9z M137.4,764.8c0,0.5,0,1,0.1,1.5h-0.6l-0.1-0.9h0c-0.3,0.5-1,1.1-2.1,1.1c-1.3,0-1.9-0.9-1.9-1.8c0-1.5,1.3-2.4,3.9-2.4
			v-0.2c0-0.6-0.1-1.9-1.7-1.9c-0.6,0-1.2,0.1-1.6,0.5l-0.2-0.5c0.6-0.4,1.3-0.6,1.9-0.6c1.9,0,2.2,1.4,2.2,2.6V764.8z"/>
		<path class="st7" d="M140.1,763.8c0,0.1,0,0.3,0.1,0.5c0.3,1,1.1,1.6,2.1,1.6c1.5,0,2.3-1.2,2.3-2.9c0-1.5-0.8-2.8-2.3-2.8
			c-0.9,0-1.8,0.7-2.2,1.7c0,0.2-0.1,0.3-0.1,0.6V763.8z M139.5,756.8h0.6v4.3h0c0.4-0.8,1.2-1.3,2.4-1.3c1.6,0,2.8,1.4,2.8,3.3
			c0,2.3-1.5,3.5-2.9,3.5c-1,0-1.8-0.4-2.3-1.3h0l0,1.2h-0.6c0-0.5,0.1-1,0.1-1.5V756.8z"/>
		<path class="st7" d="M147.1,763.1c0,1.6,1,2.8,2.4,2.8c1.3,0,2.4-1.2,2.4-2.9c0-1.2-0.7-2.8-2.4-2.8
			C147.8,760.2,147.1,761.7,147.1,763.1 M152.5,763c0,2.4-1.7,3.5-3.1,3.5c-1.7,0-3-1.3-3-3.3c0-2.2,1.5-3.4,3.1-3.4
			C151.3,759.7,152.5,761,152.5,763"/>
		<path class="st7" d="M154.1,761.8c0-0.6,0-1.3-0.1-1.9h0.6l0,1.3h0c0.3-0.8,1-1.5,1.8-1.5c0.1,0,0.2,0,0.3,0v0.6
			c-0.1,0-0.2,0-0.3,0c-0.9,0-1.5,0.8-1.7,1.8c0,0.2-0.1,0.4-0.1,0.6v3.6h-0.6V761.8z"/>
		<path class="st7" d="M161.5,762.9c-1.4,0-3.3,0.2-3.3,1.7c0,0.9,0.6,1.3,1.3,1.3c1.1,0,1.7-0.7,1.9-1.3c0-0.1,0.1-0.3,0.1-0.4
			V762.9z M162.1,764.8c0,0.5,0,1,0.1,1.5h-0.6l-0.1-0.9h0c-0.3,0.5-1,1.1-2.1,1.1c-1.3,0-1.9-0.9-1.9-1.8c0-1.5,1.3-2.4,3.9-2.4
			v-0.2c0-0.6-0.1-1.9-1.7-1.9c-0.6,0-1.2,0.1-1.6,0.5l-0.2-0.5c0.6-0.4,1.3-0.6,1.9-0.6c1.9,0,2.2,1.4,2.2,2.6V764.8z"/>
		<path class="st7" d="M165.1,758.4v1.4h1.8v0.5h-1.8v4.2c0,0.8,0.3,1.3,0.9,1.3c0.3,0,0.6-0.1,0.7-0.1l0.1,0.5
			c-0.2,0.1-0.5,0.2-0.9,0.2c-0.5,0-0.9-0.2-1.1-0.5c-0.3-0.3-0.4-0.9-0.4-1.5v-4.1h-1.1v-0.5h1.1v-1.2L165.1,758.4z"/>
		<path class="st7" d="M168.5,763.1c0,1.6,1,2.8,2.4,2.8c1.3,0,2.4-1.2,2.4-2.9c0-1.2-0.7-2.8-2.4-2.8
			C169.2,760.2,168.5,761.7,168.5,763.1 M173.9,763c0,2.4-1.7,3.5-3.1,3.5c-1.7,0-3-1.3-3-3.3c0-2.2,1.5-3.4,3.1-3.4
			C172.7,759.7,173.9,761,173.9,763"/>
		<path class="st7" d="M175.5,761.8c0-0.6,0-1.3-0.1-1.9h0.6l0,1.3h0c0.3-0.8,1-1.5,1.8-1.5c0.1,0,0.2,0,0.3,0v0.6
			c-0.1,0-0.2,0-0.3,0c-0.9,0-1.5,0.8-1.7,1.8c0,0.2-0.1,0.4-0.1,0.6v3.6h-0.6V761.8z"/>
		<path class="st7" d="M179.5,759.9h0.6v6.5h-0.6V759.9z M180.4,758c0,0.3-0.2,0.6-0.5,0.6c-0.3,0-0.5-0.3-0.5-0.6s0.2-0.6,0.5-0.6
			C180.2,757.4,180.4,757.7,180.4,758"/>
		<path class="st7" d="M187.3,764.7c0,0.6,0,1.1,0.1,1.6h-0.6l0-1.1h0c-0.3,0.6-1.1,1.3-2.2,1.3c-0.8,0-2.2-0.4-2.2-2.9v-3.8h0.6
			v3.6c0,1.4,0.4,2.4,1.7,2.4c0.9,0,1.6-0.7,1.9-1.3c0.1-0.2,0.1-0.5,0.1-0.7v-4h0.6V764.7z"/>
		<path class="st7" d="M189.5,761.4c0-0.6,0-1-0.1-1.5h0.6l0.1,1.1h0c0.4-0.7,1-1.3,2.1-1.3c0.9,0,1.6,0.6,1.9,1.4h0
			c0.2-0.4,0.4-0.7,0.7-0.9c0.4-0.3,0.9-0.5,1.5-0.5c0.6,0,2.1,0.3,2.1,2.8v3.8h-0.6v-3.7c0-1.5-0.6-2.3-1.7-2.3
			c-0.8,0-1.5,0.6-1.7,1.3c-0.1,0.2-0.1,0.4-0.1,0.6v4.2h-0.6v-4c0-1.2-0.6-2-1.6-2c-0.9,0-1.6,0.7-1.8,1.5
			c-0.1,0.2-0.1,0.4-0.1,0.6v4h-0.6V761.4z"/>
		<path class="st7" d="M204.1,763.8c0,0.1,0,0.3,0.1,0.5c0.3,1,1.1,1.6,2.1,1.6c1.5,0,2.3-1.2,2.3-2.9c0-1.5-0.8-2.8-2.3-2.8
			c-0.9,0-1.8,0.7-2.2,1.7c0,0.2-0.1,0.3-0.1,0.6V763.8z M203.5,756.8h0.6v4.3h0c0.4-0.8,1.2-1.3,2.4-1.3c1.6,0,2.8,1.4,2.8,3.3
			c0,2.3-1.5,3.5-2.9,3.5c-1,0-1.8-0.4-2.3-1.3h0l0,1.2h-0.6c0-0.5,0.1-1,0.1-1.5V756.8z"/>
		<path class="st7" d="M211.1,766.5c-0.3,0-0.5-0.3-0.5-0.6c0-0.4,0.2-0.6,0.6-0.6s0.5,0.3,0.5,0.6
			C211.6,766.2,211.4,766.5,211.1,766.5L211.1,766.5z"/>
		<path class="st7" d="M213.1,759.9l1.5,4c0.3,0.6,0.5,1.2,0.6,1.7h0c0.2-0.5,0.4-1.1,0.7-1.7l1.5-4h0.7l-2.6,6.5h-0.6l-2.5-6.5
			H213.1z"/>
		<path class="st7" d="M219.5,766.5c-0.3,0-0.5-0.3-0.5-0.6c0-0.4,0.2-0.6,0.6-0.6c0.3,0,0.5,0.3,0.5,0.6
			C220.1,766.2,219.9,766.5,219.5,766.5L219.5,766.5z"/>
		<path class="st7" d="M122,739l-1.9-8.4c-0.7-0.2-1.4-0.3-2.1-0.2l2.3,9.9c0.1,0,0.1,0,0.1-0.1C121.1,739.9,121.6,739.5,122,739
			 M114.1,734.7l1.2,1.2l-0.9-2.8C114.3,733.6,114.2,734.1,114.1,734.7 M140.8,728.4c-0.1,0.7-0.2,1.3-0.3,1.9
			c-0.5,2.3-1.9,3.9-4.2,4.9c-2.2,1-4.8,0.9-7.8-0.1l0.2-0.9c0.2,0,0.4,0.1,0.6,0.1l-1.6-4.8c-0.1,0.7-0.1,1.5-0.1,2.4
			c0,1.8-0.1,3.3-0.4,4.5c-0.5,2.3-1.9,3.9-4.2,4.9c-0.6,0.3-1.2,0.5-1.9,0.6l5.1,5.1l16.6-16.6L140.8,728.4z M133.7,734.1
			c0.4-0.2,0.7-0.4,1-0.7l-1.9-8.4c-0.7-0.1-1.4,0-2,0.1l2.2,9.2C133.2,734.3,133.5,734.2,133.7,734.1 M120.2,729.6l2.3,0.7l-0.4,1
			c-0.3-0.1-0.5-0.2-0.8-0.3l1.3,6.8c0-0.1,0.1-0.2,0.1-0.4c0.2-1,0.4-2.4,0.4-4.2c0-1.8,0.1-3.3,0.4-4.4c0.4-1.7,1.4-3,3.1-4
			c1.6-1,3.8-1.2,6.5-0.9l2.3,0.5l-0.2,1c-0.4-0.1-0.7-0.2-1.1-0.3l1.4,7.4c0.2-0.4,0.4-0.8,0.5-1.3c0.2-1,0.4-2.4,0.4-4.2
			c0-1.2,0.1-2.2,0.2-3.1l-9.7-9.7l-16.6,16.6l0.6,0.6c0.6-0.8,1.5-1.4,2.6-1.8C115.2,728.9,117.4,728.9,120.2,729.6 M128.2,727.3
			l2.1,7.1c0.7,0.1,1.4,0.1,1.9,0.1l-2.4-9C129,726,128.5,726.6,128.2,727.3 M115.1,731.8l1.6,5.6l2.7,2.7l-2.5-9.5
			C116.1,730.9,115.5,731.3,115.1,731.8"/>
		<path class="st9" d="M136.3,727.1c0-0.4,0-0.7,0-1.1C136.3,726.4,136.3,726.8,136.3,727.1 M142.4,730.9L126.3,747l-5.1-5.1
			c0.2,0,0.3-0.1,0.5-0.1c-0.4,0.1-0.9,0.2-1.4,0.2l6,6l16.6-16.6L142.4,730.9z"/>
		<path class="st8" d="M83.9,778.3c-0.9,0-2.2,0.1-2.2,1.2c0,0.6,0.4,0.9,0.9,0.9c0.7,0,1.1-0.4,1.3-0.9c0-0.1,0-0.2,0-0.3V778.3z
			 M84.3,779.6c0,0.3,0,0.7,0.1,1H84l-0.1-0.6h0c-0.2,0.3-0.7,0.7-1.4,0.7c-0.9,0-1.3-0.6-1.3-1.2c0-1,0.9-1.6,2.6-1.6v-0.1
			c0-0.4-0.1-1.3-1.1-1.3c-0.4,0-0.8,0.1-1.1,0.3l-0.1-0.3c0.4-0.3,0.9-0.4,1.3-0.4c1.3,0,1.5,0.9,1.5,1.7V779.6z"/>
		<path class="st8" d="M89,780.6l-2-6.1h1.2l0.8,2.8c0.2,0.8,0.4,1.5,0.6,2.2h0c0.2-0.7,0.4-1.5,0.6-2.2l0.9-2.8h1.2l-2.1,6.1H89z"
			/>
		<polygon class="st8" points="94.1,774.6 94.1,777 96.7,777 96.7,774.6 97.8,774.6 97.8,780.6 96.7,780.6 96.7,778 94.1,778 
			94.1,780.6 93,780.6 93,774.6 		"/>
		<polygon class="st8" points="99.1,774.6 100.2,774.6 100.2,779.7 102.7,779.7 102.7,780.6 99.1,780.6 		"/>
	</g>
	<path class="st10" d="M28.3,34.7c0.1-2.2,1.5-4.1,3.5-4.9c0,0,3.1-1.2,6.4-2.3c2.9-1,6.1-1.8,6.7-2c7-1.8,14.3-3,21.8-3.5
		c-7.4,2.5-14.6,5.7-21.3,9.6c-0.4,0.2-1.6,1-1.8,1.3c-0.4,0.5-0.6,1.1-0.6,1.7c0,0.5,0.1,1,0.3,1.4c0.2,0.4,1.2,2.3,2.5,4.1
		c0.8,1.2,1.7,2.3,2.7,3.3L33.4,49c-0.9-1.3-1.7-2.6-2.3-4.1c-0.4-0.9-1.7-4.6-2-5.6c-0.2-1-0.4-2-0.6-3
		C28.5,35.9,28.3,34.7,28.3,34.7"/>
	<path d="M81.6,28.1h2.4c1.9,0,3.8,0.6,3.8,3.1c0,2.4-1.6,3.4-3.8,3.4c-0.8,0-1.7-0.2-2.3-0.4V28.1z M81.4,42.6l0.1-0.1v-6.5l-0.1-1
		c0.4,1,1.6,1.4,2.9,1.4c3.7,0,5.4-2.4,5.4-5.3c0-2-0.8-3.3-2-4.1c-1-0.6-2.3-0.8-3.8-0.8h-4.3l-0.1,0.1v16.1l0.1,0.1H81.4z"/>
	<path d="M94.4,42.6l0.1-0.1v-9.8c0.4-0.1,2-0.6,2.5-0.6c1.4,0,2.6,0.8,2.6,2.8v7.6l0.1,0.1h1.7l0.1-0.1v-8c0-2.8-1.6-4.2-3.7-4.2
		c-2.4,0-3.3,1.5-3.5,1.9l0.1-1.1V25l-0.1-0.1l-1.7,0.2l-0.1,0.1v17.1l0.1,0.1H94.4z"/>
	<path d="M111.2,40.4c0,0-1.6,0.7-2.9,0.7c-1.2,0-2-0.7-2-1.8c0-1.5,1.3-1.8,2.1-1.8h0.6c0.8,0,1.8-0.3,2.1-1.2V40.4z M110.1,35.7
		h-0.8c-1.6,0-2.9,0.2-3.8,0.9c-0.7,0.6-1.2,1.4-1.2,2.6c0,2.7,2,3.6,3.7,3.6c2.7,0,3.3-2,3.3-2l0.7,1.7l0.1,0.1l1.5-0.2l0.1-0.1
		l-0.6-2.1V34c0-2.7-1.9-3.7-4.4-3.7c-1.3,0-2.5,0.4-3.4,1l0,0.2l0.8,1.2l0.2,0c0.6-0.5,1.5-0.7,2.4-0.7c1.4,0,2.5,0.4,2.5,2.3v1.1
		C111,35.6,110.6,35.7,110.1,35.7"/>
	<path d="M116.8,42.4l0.1,0.1h1.7l0.1-0.1v-9.8c0.5-0.1,1-0.2,1.5-0.2c0.5,0,0.9,0,1.3,0.2l0.2-0.1l0.4-2l-0.1-0.1
		c-2.5,0-3.2,1.6-3.3,2l-0.7-1.7l-0.1-0.1l-1.5,0.2l-0.1,0.1l0.6,2.3V42.4z"/>
	<path d="M124.2,42.4l0.1,0.1h1.7l0.1-0.1v-9.8c0.5-0.1,1.9-0.6,2.5-0.6c1.4,0,2.4,0.8,2.4,2.8v7.6l0.1,0.1h1.7l0.1-0.1v-8.1
		c0-0.7-0.1-1.2-0.3-1.7c0.6-0.2,2-0.5,2.5-0.5c1.4,0,2.6,0.7,2.6,2.8v7.6l0.1,0.1h1.7l0.1-0.1v-8c0-2.8-1.6-4.2-3.7-4.2
		c-2.3,0-3.3,1.3-3.5,1.8c-0.6-1.2-1.6-1.8-3-1.8c-2.6,0-3.3,1.6-3.4,2l-0.7-1.7l-0.1-0.1l-1.5,0.2l-0.1,0.1l0.6,2.3V42.4z"/>
	<path d="M149.3,40.4c0,0-1.6,0.7-2.9,0.7c-1.2,0-2-0.7-2-1.8c0-1.5,1.3-1.8,2.1-1.8h0.6c0.8,0,1.8-0.3,2.1-1.2V40.4z M148.2,35.7
		h-0.8c-1.6,0-2.9,0.2-3.8,0.9c-0.7,0.6-1.2,1.4-1.2,2.6c0,2.7,2,3.6,3.7,3.6c2.7,0,3.3-2,3.3-2l0.7,1.7l0.1,0.1l1.5-0.2l0.1-0.1
		l-0.6-2.1V34c0-2.7-1.9-3.7-4.4-3.7c-1.3,0-2.5,0.4-3.4,1l0,0.2l0.8,1.2l0.2,0c0.6-0.5,1.5-0.7,2.4-0.7c1.4,0,2.5,0.4,2.5,2.3v1.1
		C149.1,35.6,148.8,35.7,148.2,35.7"/>
	<rect x="79.5" y="44.9" width="121.7" height="0.8"/>
	<path d="M169.1,50.9c-0.4,0.4-0.9,0.5-1.5,0.5h-0.2l0.6-3h0.1c1.1,0,1.6,0.4,1.6,1.1C169.7,50.1,169.5,50.5,169.1,50.9 M168.8,52.1
		c0.3,0.3,0.5,0.7,0.5,1.2c0,1-0.6,1.5-1.7,1.5c-0.5,0-1.1-0.1-1.6-0.2l-0.5-0.1c0.9-0.5,1.4-1.3,1.6-2.4l0.1-0.5h0.1
		C168,51.7,168.5,51.9,168.8,52.1 M170.8,49.5c0-0.5-0.2-0.8-0.6-1c-0.4-0.2-1.1-0.3-2.1-0.3c-1.4,0-2.4,0.2-3.1,0.7
		c-0.7,0.5-1.1,1.2-1.1,2.2l0.9-0.5v-0.1c0-0.6,0.2-1,0.6-1.4c0.4-0.4,0.9-0.5,1.6-0.5l-0.8,4.2c-0.2,0.8-0.3,1.3-0.5,1.5
		c-0.2,0.2-0.5,0.3-1,0.3h-0.1l-0.7,0.7l1.9,0.1l1.1,0c1,0,1.8-0.2,2.5-0.6c0.7-0.4,1-0.9,1-1.6c0-0.7-0.6-1.2-1.9-1.6
		C170,51.1,170.8,50.4,170.8,49.5"/>
	<path d="M173.2,51.1c0.4-0.5,0.7-0.8,1.1-0.8c0.4,0,0.5,0.2,0.5,0.7c0,0.5-0.2,0.9-0.6,1.2c-0.4,0.3-1,0.5-1.7,0.6
		C172.6,52.2,172.8,51.7,173.2,51.1 M174.8,52.5c0.6-0.4,0.9-1,0.9-1.6c0-0.3-0.1-0.6-0.3-0.8c-0.2-0.2-0.4-0.3-0.7-0.3
		c-0.8,0-1.5,0.4-2.2,1.2c-0.7,0.8-1,1.7-1,2.6c0,0.5,0.1,0.9,0.4,1.2c0.3,0.3,0.7,0.5,1.1,0.5c0.7,0,1.6-0.4,2.6-1.1l0.1-0.4
		c-0.9,0.6-1.6,0.9-2.2,0.9c-0.7,0-1-0.5-1-1.4l0-0.2C173.4,53.2,174.2,53,174.8,52.5"/>
	<path d="M181.4,50.4c-0.4,0.3-0.6,0.7-0.6,1.2c0,0.3,0.2,0.7,0.6,1.2l0.4,0.5c0.4,0.4,0.5,0.7,0.5,0.9c0,0.2-0.1,0.4-0.3,0.5
		c-0.2,0.1-0.4,0.2-0.7,0.2c-0.4,0-0.9-0.2-1.3-0.5l-0.6,0.7c0.5,0.2,0.9,0.3,1.3,0.3c0.6,0,1.1-0.2,1.6-0.5
		c0.5-0.3,0.7-0.7,0.7-1.2c0-0.3-0.2-0.7-0.6-1.2l-0.4-0.4c-0.4-0.4-0.6-0.8-0.6-1c0-0.5,0.3-0.8,0.9-0.8c0.6,0,0.8,0.2,0.8,0.7
		c0,0,0,0.1,0,0.1l0,0.1h0.3l0.2-1.1c-0.4-0.1-0.7-0.2-1-0.2C182.3,49.9,181.8,50.1,181.4,50.4"/>
	<path d="M189.6,54.8c-0.2,0-0.3-0.1-0.3-0.3c0-0.1,0-0.4,0.1-0.7l0.5-2.4l0.4-1.5l-1,0.1l-0.3,1.7c-0.4,0.8-0.9,1.5-1.3,2
		c-0.5,0.6-0.9,0.9-1.1,0.9c-0.2,0-0.3-0.1-0.3-0.4c0-0.1,0-0.2,0.1-0.5l0.5-2.4c0.1-0.4,0.1-0.7,0.1-0.8c0-0.5-0.2-0.7-0.7-0.7
		c-0.6,0-1.2,0.4-1.9,1.1l-0.1,0.4c0.6-0.7,1.1-1.1,1.4-1.1c0.2,0,0.3,0.1,0.3,0.3c0,0.1,0,0.4-0.1,0.7l-0.5,2.4
		c-0.1,0.3-0.1,0.5-0.1,0.7c0,0.6,0.3,0.9,0.8,0.9c0.9,0,1.8-0.9,2.7-2.7h0.1l-0.2,1.2c-0.1,0.4-0.1,0.7-0.1,0.8
		c0,0.5,0.2,0.7,0.7,0.7c0.6,0,1.2-0.4,1.9-1.1l0.1-0.4C190.4,54.5,189.9,54.8,189.6,54.8"/>
	<path d="M194.8,50.7c-0.5,0.5-1,1.2-1.4,2h-0.1l0.2-1.2c0.1-0.3,0.1-0.5,0.1-0.8c0-0.5-0.2-0.8-0.7-0.8c-0.5,0-1.2,0.4-1.9,1.2
		l-0.1,0.4c0.6-0.7,1.1-1.1,1.5-1.1c0.2,0,0.3,0.1,0.3,0.4c0,0.2,0,0.4-0.1,0.6l-0.5,2.4l-0.4,1.5l1-0.1l0.4-1.8
		c1-1.8,1.9-2.8,2.5-2.8c0.1,0,0.3,0.1,0.5,0.2l0.6-0.9c-0.2-0.1-0.4-0.1-0.6-0.1C195.8,49.9,195.4,50.1,194.8,50.7"/>
	<path d="M198.7,51.1c0.4-0.5,0.7-0.8,1.1-0.8c0.4,0,0.5,0.2,0.5,0.7c0,0.5-0.2,0.9-0.6,1.2c-0.4,0.3-1,0.5-1.7,0.6
		C198.1,52.2,198.4,51.7,198.7,51.1 M198.1,53.4l0-0.2c0.9,0,1.6-0.2,2.3-0.7c0.6-0.4,0.9-1,0.9-1.6c0-0.3-0.1-0.6-0.3-0.8
		c-0.2-0.2-0.4-0.3-0.7-0.3c-0.8,0-1.5,0.4-2.2,1.2c-0.7,0.8-1,1.6-1,2.6c0,0.5,0.1,0.9,0.4,1.2c0.3,0.3,0.7,0.5,1.1,0.5
		c0.7,0,1.6-0.4,2.6-1.1l0.1-0.4c-0.9,0.6-1.6,0.9-2.2,0.9C198.4,54.8,198.1,54.3,198.1,53.4"/>
</g>
<g id="Layer_3">
	<g>
		<path class="st11" d="M25.8,107.8h-5l-1.5,4.3h-0.9l4.4-12.5h0.9l4.4,12.5h-0.9L25.8,107.8z M25.6,107.1l-0.8-2.3
			c-0.5-1.5-0.9-2.8-1.4-4.3h-0.1c-0.4,1.5-0.9,2.8-1.4,4.3l-0.8,2.3H25.6z"/>
		<path class="st11" d="M30.9,99.6h0.9l5.3,8.8l1.4,2.5h0.1c0-1.2-0.1-2.4-0.1-3.6v-7.7h0.8v12.5h-0.9l-5.3-8.8l-1.4-2.5h-0.1
			c0,1.2,0.1,2.3,0.1,3.6v7.8h-0.8V99.6z"/>
		<path class="st11" d="M43.8,99.6h0.9v12.5h-0.9V99.6z"/>
		<path class="st11" d="M49.1,99.6h1.2l2.6,7.4l1,2.8H54l0.9-2.8l2.6-7.4h1.2v12.5H58v-8.2c0-1,0.1-2.3,0.1-3.4H58l-1,2.8l-2.7,7.5
			h-0.8l-2.7-7.5l-1-2.8h-0.1c0.1,1,0.1,2.4,0.1,3.4v8.2h-0.8V99.6z"/>
		<path class="st11" d="M68.9,107.8h-5l-1.5,4.3h-0.9L66,99.6h0.9l4.4,12.5h-0.9L68.9,107.8z M68.6,107.1l-0.8-2.3
			c-0.5-1.5-0.9-2.8-1.4-4.3h-0.1c-0.4,1.5-0.9,2.8-1.4,4.3l-0.8,2.3H68.6z"/>
		<path class="st11" d="M74,99.6h0.9v11.8h5.8v0.8H74V99.6z"/>
		<path class="st11" d="M88.2,99.6h2.9c3.9,0,5.7,2.4,5.7,6.2c0,3.8-1.8,6.3-5.7,6.3h-2.9V99.6z M91,111.4c3.4,0,4.9-2.3,4.9-5.6
			c0-3.2-1.5-5.5-4.9-5.5h-1.9v11H91z"/>
		<path class="st11" d="M105.9,107.8h-5l-1.5,4.3h-0.9l4.4-12.5h0.9l4.4,12.5h-0.9L105.9,107.8z M105.6,107.1l-0.8-2.3
			c-0.5-1.5-0.9-2.8-1.4-4.3h-0.1c-0.4,1.5-0.9,2.8-1.4,4.3l-0.8,2.3H105.6z"/>
		<path class="st11" d="M112.9,100.3h-4v-0.8h8.9v0.8h-4v11.8h-0.9V100.3z"/>
		<path class="st11" d="M125.8,107.8h-5l-1.5,4.3h-0.9l4.4-12.5h0.9l4.4,12.5h-0.9L125.8,107.8z M125.6,107.1l-0.8-2.3
			c-0.5-1.5-0.9-2.8-1.4-4.3h-0.1c-0.4,1.5-0.9,2.8-1.4,4.3l-0.8,2.3H125.6z"/>
	</g>
	<g>
		<path class="st11" d="M309.1,109.8c0.9,1,2.2,1.7,3.7,1.7c1.9,0,3.1-1,3.1-2.5c0-1.6-1-2.1-2.2-2.6l-1.9-0.9
			c-1.1-0.5-2.5-1.3-2.5-3.1c0-1.8,1.6-3.1,3.6-3.1c1.5,0,2.7,0.7,3.5,1.5l-0.5,0.6c-0.7-0.8-1.7-1.3-3-1.3c-1.7,0-2.8,0.9-2.8,2.2
			c0,1.4,1.3,2,2.2,2.4l1.9,0.8c1.4,0.6,2.6,1.4,2.6,3.3c0,1.9-1.6,3.4-4,3.4c-1.8,0-3.2-0.8-4.2-1.9L309.1,109.8z"/>
		<path class="st11" d="M325.8,107.8h-5l-1.5,4.3h-0.9l4.4-12.5h0.9l4.4,12.5h-0.9L325.8,107.8z M325.5,107.1l-0.8-2.3
			c-0.5-1.5-1-2.8-1.4-4.3h-0.1c-0.4,1.5-0.9,2.8-1.4,4.3l-0.8,2.3H325.5z"/>
		<path class="st11" d="M330.9,99.6h1.2l2.6,7.4l1,2.8h0.1l1-2.8l2.6-7.4h1.2v12.5h-0.9v-8.2c0-1,0.1-2.3,0.1-3.4h-0.1l-1,2.8
			l-2.7,7.5h-0.8l-2.7-7.5l-1-2.8h-0.1c0.1,1,0.1,2.4,0.1,3.4v8.2h-0.8V99.6z"/>
		<path class="st11" d="M345.1,99.6h3.4c2.8,0,4.5,0.9,4.5,3.5c0,2.5-1.7,3.6-4.5,3.6h-2.5v5.4h-0.9V99.6z M348.3,106
			c2.5,0,3.8-0.9,3.8-2.9c0-2.1-1.2-2.8-3.8-2.8h-2.3v5.7H348.3z"/>
		<path class="st11" d="M356.5,99.6h0.9v11.8h5.8v0.8h-6.6V99.6z"/>
		<path class="st11" d="M366.1,99.6h6.9v0.8h-6v4.7h5v0.8h-5v5.5h6.2v0.8h-7V99.6z"/>
		<path class="st11" d="M381.1,99.6h2.9c3.9,0,5.7,2.4,5.7,6.2c0,3.8-1.8,6.3-5.7,6.3h-2.9V99.6z M383.9,111.4
			c3.4,0,4.9-2.3,4.9-5.6c0-3.2-1.5-5.5-4.9-5.5H382v11H383.9z"/>
		<path class="st11" d="M398.8,107.8h-5l-1.5,4.3h-0.9l4.4-12.5h0.9l4.4,12.5h-0.9L398.8,107.8z M398.6,107.1l-0.8-2.3
			c-0.5-1.5-0.9-2.8-1.4-4.3h-0.1c-0.4,1.5-0.9,2.8-1.4,4.3l-0.8,2.3H398.6z"/>
		<path class="st11" d="M405.9,100.3h-4v-0.8h8.9v0.8h-4v11.8h-0.9V100.3z"/>
		<path class="st11" d="M418.8,107.8h-5l-1.5,4.3h-0.9l4.4-12.5h0.9l4.4,12.5h-0.9L418.8,107.8z M418.5,107.1l-0.8-2.3
			c-0.5-1.5-1-2.8-1.4-4.3h-0.1c-0.4,1.5-0.9,2.8-1.4,4.3l-0.8,2.3H418.5z"/>
	</g>
	<g>
		<path class="st11" d="M315.7,26.5h4.4c5,0,7.9,2.7,7.9,8.1c0,5.4-2.9,8.2-7.8,8.2h-4.5V26.5z M319.9,40.5c3.3,0,5.2-1.9,5.2-5.9
			c0-4-1.9-5.7-5.2-5.7h-1.3v11.6H319.9z"/>
		<path class="st11" d="M331.3,26.5h3l5.1,9.2l1.7,3.5h0.1c-0.1-1.7-0.4-3.7-0.4-5.6v-7.1h2.8v16.3h-3l-5.1-9.2l-1.7-3.5h-0.1
			c0.1,1.7,0.4,3.7,0.4,5.5v7.1h-2.8V26.5z"/>
		<path class="st11" d="M355.3,38.4h-5.5l-1.3,4.4h-2.9l5.3-16.3h3.4l5.3,16.3h-3L355.3,38.4z M354.7,36.2l-0.6-2
			c-0.5-1.7-1-3.6-1.5-5.4h-0.1c-0.4,1.8-0.9,3.7-1.4,5.4l-0.6,2H354.7z"/>
		<path class="st11" d="M374.4,38.4h-5.5l-1.3,4.4h-2.9l5.3-16.3h3.4l5.3,16.3h-3L374.4,38.4z M373.7,36.2l-0.6-2
			c-0.5-1.7-1-3.6-1.5-5.4h-0.1c-0.4,1.8-0.9,3.7-1.4,5.4l-0.6,2H373.7z"/>
		<path class="st11" d="M380.5,30.6h2.4l0.2,1.6h0.1c1.1-1.1,2.3-1.9,4-1.9c2.6,0,3.8,1.8,3.8,4.9v7.7h-2.9v-7.3
			c0-2-0.6-2.8-1.9-2.8c-1.1,0-1.8,0.5-2.8,1.5v8.6h-2.9V30.6z"/>
		<path class="st11" d="M401.2,35c0-1.3-0.6-2.4-2.2-2.4c-1.2,0-2.4,0.5-3.4,1.2l-1-1.9c1.3-0.9,3.1-1.6,5-1.6
			c3.1,0,4.6,1.9,4.6,5.3v7.3h-2.3l-0.2-1.3h-0.1c-1.1,0.9-2.3,1.6-3.8,1.6c-2.2,0-3.6-1.4-3.6-3.6C394,36.9,396.2,35.6,401.2,35z
			 M398.5,40.9c1,0,1.8-0.5,2.7-1.3v-2.7c-3.3,0.4-4.4,1.3-4.4,2.5C396.8,40.4,397.5,40.9,398.5,40.9z"/>
		<path class="st11" d="M407.6,25.2h2.9v14.6c0,0.7,0.3,1,0.6,1c0.1,0,0.2,0,0.5-0.1l0.4,2.1c-0.3,0.1-0.8,0.2-1.5,0.2
			c-2,0-2.8-1.3-2.8-3.4V25.2z"/>
		<path class="st11" d="M415,45.6c1.3,0,2-0.9,2.4-2.1l0.2-0.8l-4.8-12.1h2.9l2.1,6c0.3,1.1,0.7,2.3,1.1,3.4h0.1
			c0.3-1.1,0.6-2.3,0.9-3.4l1.8-6h2.8l-4.4,12.8c-1,2.8-2.3,4.5-5,4.5c-0.7,0-1.1-0.1-1.6-0.2l0.5-2.2
			C414.3,45.5,414.7,45.6,415,45.6z"/>
		<path class="st11" d="M426.8,39.6c1.1,0.8,2.1,1.4,3.4,1.4c1.3,0,1.9-0.6,1.9-1.5c0-1-1.3-1.5-2.6-2c-1.6-0.6-3.4-1.5-3.4-3.6
			c0-2.1,1.7-3.7,4.5-3.7c1.7,0,3.1,0.7,4.1,1.5l-1.3,1.7c-0.9-0.6-1.7-1-2.7-1c-1.2,0-1.8,0.6-1.8,1.3c0,1,1.2,1.3,2.5,1.8
			c1.7,0.6,3.5,1.4,3.5,3.7c0,2.1-1.7,3.8-4.8,3.8c-1.7,0-3.4-0.7-4.6-1.7L426.8,39.6z"/>
		<path class="st11" d="M437.2,26.8c0-1,0.7-1.6,1.8-1.6c1,0,1.8,0.7,1.8,1.6c0,0.9-0.8,1.6-1.8,1.6
			C437.9,28.4,437.2,27.8,437.2,26.8z M437.5,30.6h2.9v12.3h-2.9V30.6z"/>
		<path class="st11" d="M444.2,39.6c1.1,0.8,2.1,1.4,3.4,1.4c1.3,0,1.9-0.6,1.9-1.5c0-1-1.3-1.5-2.6-2c-1.6-0.6-3.4-1.5-3.4-3.6
			c0-2.1,1.7-3.7,4.5-3.7c1.7,0,3.1,0.7,4.1,1.5l-1.3,1.7c-0.8-0.6-1.7-1-2.7-1c-1.2,0-1.8,0.6-1.8,1.3c0,1,1.2,1.3,2.5,1.8
			c1.7,0.6,3.5,1.4,3.5,3.7c0,2.1-1.7,3.8-4.8,3.8c-1.7,0-3.4-0.7-4.6-1.7L444.2,39.6z"/>
		<path class="st11" d="M465.3,30.3c1.6,0,2.8,0.6,3.6,1.4l-1.4,1.8c-0.6-0.6-1.3-0.9-2.1-0.9c-2,0-3.3,1.6-3.3,4.1
			c0,2.4,1.3,4.1,3.3,4.1c1,0,1.8-0.5,2.5-1l1.2,1.8c-1.2,1-2.6,1.6-4,1.6c-3.3,0-5.9-2.3-5.9-6.4C459.1,32.6,462,30.3,465.3,30.3z"
			/>
		<path class="st11" d="M475.7,30.3c3.3,0,5.1,2.4,5.1,5.8c0,0.5,0,1-0.1,1.3h-7.8c0.2,2.2,1.6,3.5,3.6,3.5c1,0,1.9-0.3,2.8-0.9
			l1,1.8c-1.2,0.8-2.6,1.3-4.2,1.3c-3.4,0-6-2.4-6-6.4C470.1,32.7,472.9,30.3,475.7,30.3z M478.3,35.6c0-1.9-0.8-3.1-2.5-3.1
			c-1.4,0-2.7,1.1-2.9,3.1H478.3z"/>
		<path class="st11" d="M483.6,30.6h2.4l0.2,2.2h0.1c0.9-1.6,2.2-2.5,3.5-2.5c0.6,0,1,0.1,1.4,0.2l-0.5,2.5
			c-0.4-0.1-0.8-0.2-1.3-0.2c-1,0-2.2,0.7-2.9,2.5v7.5h-2.9V30.6z"/>
		<path class="st11" d="M493.3,32.9h-1.7v-2.1l1.9-0.1l0.3-3.3h2.4v3.3h3.1v2.3h-3.1v5.8c0,1.4,0.5,2.1,1.7,2.1
			c0.4,0,0.9-0.1,1.3-0.3l0.5,2.1c-0.7,0.2-1.5,0.4-2.5,0.4c-2.8,0-3.9-1.8-3.9-4.4V32.9z"/>
		<path class="st11" d="M501.6,26.8c0-1,0.7-1.6,1.8-1.6c1,0,1.8,0.7,1.8,1.6c0,0.9-0.8,1.6-1.8,1.6
			C502.3,28.4,501.6,27.8,501.6,26.8z M501.9,30.6h2.9v12.3h-2.9V30.6z"/>
		<path class="st11" d="M514.7,27.5c-0.4-0.2-0.9-0.3-1.3-0.3c-1,0-1.5,0.6-1.5,2.1v1.3h2.4v2.3h-2.4v10H509v-10h-1.6v-2.1l1.6-0.1
			v-1.3c0-2.5,1.2-4.4,4.1-4.4c0.9,0,1.7,0.2,2.2,0.4L514.7,27.5z"/>
		<path class="st11" d="M516.1,26.8c0-1,0.7-1.6,1.8-1.6c1,0,1.8,0.7,1.8,1.6c0,0.9-0.8,1.6-1.8,1.6
			C516.8,28.4,516.1,27.8,516.1,26.8z M516.4,30.6h2.9v12.3h-2.9V30.6z"/>
		<path class="st11" d="M528.3,30.3c1.6,0,2.8,0.6,3.6,1.4l-1.4,1.8c-0.6-0.6-1.3-0.9-2.1-0.9c-2,0-3.3,1.6-3.3,4.1
			c0,2.4,1.3,4.1,3.3,4.1c1,0,1.8-0.5,2.5-1l1.2,1.8c-1.2,1-2.6,1.6-4,1.6c-3.3,0-5.9-2.3-5.9-6.4C522.1,32.6,525,30.3,528.3,30.3z"
			/>
		<path class="st11" d="M541,35c0-1.3-0.6-2.4-2.2-2.4c-1.2,0-2.4,0.5-3.4,1.2l-1-1.9c1.3-0.9,3.1-1.6,5-1.6c3.1,0,4.6,1.9,4.6,5.3
			v7.3h-2.3l-0.2-1.3h-0.1c-1.1,0.9-2.3,1.6-3.8,1.6c-2.1,0-3.6-1.4-3.6-3.6C533.7,36.9,535.9,35.6,541,35z M538.3,40.9
			c1,0,1.8-0.5,2.7-1.3v-2.7c-3.3,0.4-4.4,1.3-4.4,2.5C536.5,40.4,537.3,40.9,538.3,40.9z"/>
		<path class="st11" d="M547.8,32.9H546v-2.1l1.9-0.1l0.3-3.3h2.4v3.3h3.1v2.3h-3.1v5.8c0,1.4,0.5,2.1,1.7,2.1
			c0.4,0,0.9-0.1,1.3-0.3l0.5,2.1c-0.7,0.2-1.5,0.4-2.5,0.4c-2.8,0-3.9-1.8-3.9-4.4V32.9z"/>
		<path class="st11" d="M561,30.3c3.3,0,5.1,2.4,5.1,5.8c0,0.5,0,1-0.1,1.3h-7.8c0.2,2.2,1.6,3.5,3.6,3.5c1,0,1.9-0.3,2.8-0.9l1,1.8
			c-1.2,0.8-2.6,1.3-4.2,1.3c-3.4,0-6-2.4-6-6.4C555.3,32.7,558.1,30.3,561,30.3z M563.6,35.6c0-1.9-0.8-3.1-2.5-3.1
			c-1.4,0-2.7,1.1-2.9,3.1H563.6z"/>
	</g>
	<g>
		<path class="st4" d="M130.2,810.7h2c1.4,0,2.4,0.5,2.4,1.9c0,1.4-1,2-2.4,2H131v2.6h-0.8V810.7z M132.1,814c1.1,0,1.7-0.4,1.7-1.3
			c0-0.9-0.6-1.3-1.7-1.3H131v2.6H132.1z"/>
		<path class="st4" d="M135.9,810.1h0.8v1.9l0,1c0.5-0.4,0.9-0.8,1.6-0.8c1,0,1.5,0.7,1.5,1.9v3.1h-0.8v-3c0-0.9-0.3-1.3-0.9-1.3
			c-0.5,0-0.8,0.3-1.3,0.7v3.5h-0.8V810.1z"/>
		<path class="st4" d="M144.1,814.2c0-0.6-0.2-1.2-1-1.2c-0.6,0-1.1,0.3-1.4,0.5l-0.3-0.6c0.4-0.3,1.1-0.6,1.9-0.6
			c1.2,0,1.7,0.8,1.7,2v3h-0.7l-0.1-0.6h0c-0.5,0.4-1,0.7-1.6,0.7c-0.8,0-1.4-0.5-1.4-1.4C141.1,814.9,142,814.4,144.1,814.2z
			 M142.7,816.7c0.5,0,0.9-0.2,1.3-0.6v-1.3c-1.6,0.2-2.2,0.6-2.2,1.2C141.9,816.5,142.2,816.7,142.7,816.7z"/>
		<path class="st4" d="M146.4,812.4h0.7l0.1,0.9h0c0.3-0.6,0.8-1,1.4-1c0.2,0,0.4,0,0.5,0.1l-0.2,0.7c-0.2-0.1-0.3-0.1-0.5-0.1
			c-0.4,0-0.9,0.3-1.2,1.1v3.1h-0.8V812.4z"/>
		<path class="st4" d="M149.9,812.4h0.7l0.1,0.7h0c0.4-0.5,0.9-0.8,1.5-0.8c0.7,0,1.1,0.3,1.3,0.9c0.5-0.5,1-0.9,1.6-0.9
			c1,0,1.5,0.7,1.5,1.9v3.1h-0.8v-3c0-0.9-0.3-1.3-0.9-1.3c-0.4,0-0.8,0.2-1.2,0.7v3.5h-0.8v-3c0-0.9-0.3-1.3-0.9-1.3
			c-0.4,0-0.8,0.2-1.2,0.7v3.5h-0.8V812.4z"/>
		<path class="st4" d="M160.9,814.2c0-0.6-0.2-1.2-1-1.2c-0.6,0-1.1,0.3-1.4,0.5l-0.3-0.6c0.4-0.3,1.1-0.6,1.9-0.6
			c1.2,0,1.7,0.8,1.7,2v3h-0.7l-0.1-0.6h0c-0.5,0.4-1,0.7-1.6,0.7c-0.8,0-1.4-0.5-1.4-1.4C157.9,814.9,158.9,814.4,160.9,814.2z
			 M159.6,816.7c0.5,0,0.9-0.2,1.3-0.6v-1.3c-1.6,0.2-2.2,0.6-2.2,1.2C158.8,816.5,159.1,816.7,159.6,816.7z"/>
		<path class="st4" d="M163.4,810.7h1.6c2,0,3.1,1.2,3.1,3.2c0,2.1-1.1,3.3-3.1,3.3h-1.7V810.7z M165,816.5c1.5,0,2.3-1,2.3-2.6
			c0-1.6-0.8-2.6-2.3-2.6h-0.7v5.2H165z"/>
		<path class="st4" d="M169.5,810.7h0.9l2.4,4.1l0.7,1.4h0c0-0.7-0.1-1.4-0.1-2.1v-3.4h0.8v6.6h-0.9l-2.4-4.1l-0.7-1.3h0
			c0,0.7,0.1,1.4,0.1,2v3.4h-0.8V810.7z"/>
		<path class="st4" d="M179,815.2h-2.4l-0.6,2h-0.8l2.2-6.6h0.9l2.2,6.6h-0.9L179,815.2z M178.8,814.6l-0.3-1
			c-0.2-0.7-0.4-1.4-0.7-2.2h0c-0.2,0.8-0.4,1.5-0.6,2.2l-0.3,1H178.8z"/>
	</g>
	<g>
		<path class="st4" d="M181.5,810.5h-1.2v-0.4h2.8v0.4H182v3.4h-0.5V810.5z"/>
		<path class="st4" d="M183.8,810.1h0.6l0.7,2.1l0.3,0.8h0l0.3-0.8l0.7-2.1h0.6v3.8h-0.5v-2.1c0-0.3,0-0.8,0.1-1.1h0l-0.3,0.9
			l-0.7,2h-0.3l-0.7-2l-0.3-0.9h0c0,0.3,0.1,0.8,0.1,1.1v2.1h-0.4V810.1z"/>
	</g>
	<g>
		<path class="st4" d="M188,818.4c0.6-0.2,0.9-0.7,0.9-1.2c0,0-0.1,0-0.1,0c-0.3,0-0.6-0.2-0.6-0.6c0-0.4,0.3-0.6,0.6-0.6
			c0.4,0,0.7,0.4,0.7,1c0,0.9-0.5,1.5-1.3,1.9L188,818.4z"/>
		<path class="st4" d="M192.9,810.7h1.6c2,0,3.1,1.2,3.1,3.2c0,2.1-1.1,3.3-3.1,3.3h-1.7V810.7z M194.5,816.5c1.5,0,2.3-1,2.3-2.6
			c0-1.6-0.8-2.6-2.3-2.6h-0.7v5.2H194.5z"/>
		<path class="st4" d="M200.8,812.3c1.2,0,1.9,0.9,1.9,2.3c0,0.2,0,0.3,0,0.4h-3.3c0.1,1,0.7,1.7,1.6,1.7c0.5,0,0.8-0.1,1.2-0.4
			l0.3,0.5c-0.4,0.3-0.9,0.5-1.6,0.5c-1.3,0-2.3-0.9-2.3-2.5C198.6,813.2,199.7,812.3,200.8,812.3z M202,814.4c0-1-0.4-1.5-1.2-1.5
			c-0.7,0-1.3,0.6-1.4,1.5H202z"/>
		<path class="st4" d="M204,812.4h0.7l0.1,0.7h0c0.4-0.5,0.9-0.8,1.5-0.8c0.7,0,1.1,0.3,1.3,0.9c0.5-0.5,1-0.9,1.6-0.9
			c1,0,1.5,0.7,1.5,1.9v3.1h-0.8v-3c0-0.9-0.3-1.3-0.9-1.3c-0.4,0-0.8,0.2-1.2,0.7v3.5h-0.8v-3c0-0.9-0.3-1.3-0.9-1.3
			c-0.4,0-0.8,0.2-1.2,0.7v3.5H204V812.4z"/>
		<path class="st4" d="M214.1,812.3c1.2,0,2.2,0.9,2.2,2.6c0,1.6-1.1,2.5-2.2,2.5s-2.2-0.9-2.2-2.5
			C211.9,813.2,212.9,812.3,214.1,812.3z M214.1,816.7c0.8,0,1.4-0.8,1.4-1.9c0-1.1-0.6-1.9-1.4-1.9c-0.8,0-1.4,0.8-1.4,1.9
			C212.7,815.9,213.3,816.7,214.1,816.7z"/>
		<path class="st4" d="M217.7,810.1h0.8v4.8h0l2.1-2.6h0.9l-1.6,1.9l1.8,2.9h-0.9l-1.4-2.3l-0.9,1.1v1.3h-0.8V810.1z"/>
		<path class="st4" d="M222.6,812.4h0.7l0.1,0.9h0c0.3-0.6,0.8-1,1.4-1c0.2,0,0.4,0,0.5,0.1l-0.2,0.7c-0.2-0.1-0.3-0.1-0.5-0.1
			c-0.4,0-0.9,0.3-1.2,1.1v3.1h-0.8V812.4z"/>
		<path class="st4" d="M228.6,814.2c0-0.6-0.2-1.2-1-1.2c-0.6,0-1.1,0.3-1.4,0.5l-0.3-0.6c0.4-0.3,1.1-0.6,1.9-0.6
			c1.2,0,1.7,0.8,1.7,2v3h-0.7l-0.1-0.6h0c-0.5,0.4-1,0.7-1.6,0.7c-0.8,0-1.4-0.5-1.4-1.4C225.6,814.9,226.5,814.4,228.6,814.2z
			 M227.2,816.7c0.5,0,0.9-0.2,1.3-0.6v-1.3c-1.6,0.2-2.2,0.6-2.2,1.2C226.4,816.5,226.8,816.7,227.2,816.7z"/>
		<path class="st4" d="M231.1,813h-0.7v-0.6l0.8,0l0.1-1.4h0.7v1.4h1.3v0.7h-1.3v2.7c0,0.6,0.2,0.9,0.7,0.9c0.2,0,0.4-0.1,0.5-0.1
			l0.2,0.6c-0.3,0.1-0.6,0.2-0.9,0.2c-1,0-1.4-0.7-1.4-1.6V813z"/>
		<path class="st4" d="M234.2,812.4h0.8v3c0,0.9,0.3,1.3,0.9,1.3c0.5,0,0.8-0.2,1.3-0.8v-3.4h0.8v4.9c-0.6,0.3-0.9,0.7-0.9,1
			c0,0.3,0.2,0.5,0.5,0.5c0.2,0,0.3,0,0.4-0.1l0.2,0.4c-0.2,0.1-0.5,0.3-0.8,0.3c-0.5,0-0.9-0.3-0.9-0.8c0-0.5,0.4-0.9,0.8-1.2
			l-0.1-0.7h0c-0.4,0.5-0.9,0.9-1.6,0.9c-1,0-1.5-0.7-1.5-1.9V812.4z"/>
		<path class="st4" d="M241.6,816.1c0.4,0.3,0.8,0.6,1.4,0.6c0.6,0,1-0.3,1-0.8c0-0.5-0.6-0.7-1.1-0.9c-0.7-0.2-1.4-0.6-1.4-1.4
			c0-0.8,0.6-1.4,1.7-1.4c0.6,0,1.1,0.2,1.5,0.5l-0.4,0.5c-0.3-0.2-0.7-0.4-1.1-0.4c-0.6,0-0.9,0.3-0.9,0.7c0,0.5,0.5,0.6,1.1,0.8
			c0.7,0.3,1.5,0.5,1.5,1.5c0,0.8-0.6,1.4-1.8,1.4c-0.7,0-1.3-0.3-1.8-0.7L241.6,816.1z"/>
		<path class="st4" d="M246.1,813h-0.7v-0.6l0.8,0l0.1-1.4h0.7v1.4h1.3v0.7h-1.3v2.7c0,0.6,0.2,0.9,0.7,0.9c0.2,0,0.4-0.1,0.5-0.1
			l0.2,0.6c-0.3,0.1-0.6,0.2-0.9,0.2c-1,0-1.4-0.7-1.4-1.6V813z"/>
		<path class="st4" d="M249.3,812.4h0.7l0.1,0.9h0c0.3-0.6,0.8-1,1.4-1c0.2,0,0.4,0,0.5,0.1l-0.2,0.7c-0.2-0.1-0.3-0.1-0.5-0.1
			c-0.4,0-0.9,0.3-1.2,1.1v3.1h-0.8V812.4z"/>
		<path class="st4" d="M252.6,816.1c0.3,0,0.6,0.3,0.6,0.6c0,0.4-0.3,0.6-0.6,0.6c-0.3,0-0.6-0.3-0.6-0.6
			C252,816.3,252.3,816.1,252.6,816.1z"/>
		<path class="st4" d="M256.6,815.9c0.4,0.4,0.9,0.7,1.6,0.7c0.8,0,1.4-0.6,1.4-1.5c0-0.9-0.5-1.4-1.4-1.4c-0.4,0-0.7,0.1-1.1,0.4
			l-0.4-0.3l0.2-3.1h3.2v0.7h-2.5l-0.2,1.9c0.3-0.2,0.6-0.3,1-0.3c1.1,0,2,0.6,2,2c0,1.4-1,2.2-2.1,2.2c-1,0-1.6-0.4-2.1-0.9
			L256.6,815.9z"/>
		<path class="st4" d="M261.6,815.9c0.4,0.4,0.9,0.8,1.6,0.8c0.8,0,1.3-0.5,1.3-1.2c0-0.8-0.5-1.3-2-1.3v-0.6c1.4,0,1.8-0.5,1.8-1.2
			c0-0.6-0.4-1-1.1-1c-0.5,0-1,0.3-1.4,0.7l-0.4-0.5c0.5-0.5,1.1-0.8,1.8-0.8c1.1,0,1.9,0.6,1.9,1.6c0,0.8-0.5,1.3-1.2,1.5v0
			c0.8,0.2,1.4,0.7,1.4,1.6c0,1.1-0.9,1.8-2.1,1.8c-1,0-1.7-0.4-2.1-0.9L261.6,815.9z"/>
		<path class="st4" d="M266.3,818.4c0.6-0.2,0.9-0.7,0.9-1.2c0,0-0.1,0-0.1,0c-0.3,0-0.6-0.2-0.6-0.6c0-0.4,0.3-0.6,0.6-0.6
			c0.4,0,0.7,0.4,0.7,1c0,0.9-0.5,1.5-1.3,1.9L266.3,818.4z"/>
		<path class="st4" d="M271.3,810.7h0.8v5.8h2.9v0.7h-3.7V810.7z"/>
		<path class="st4" d="M276.3,811.4h-2v-0.7h4.8v0.7h-2v5.9h-0.8V811.4z"/>
		<path class="st4" d="M279,814.4h2.3v0.6H279V814.4z"/>
		<path class="st4" d="M286.4,815.5h-0.9v1.8h-0.8v-1.8h-2.9v-0.5l2.7-4.1h0.9v4h0.9V815.5z M284.7,814.8V813c0-0.3,0-0.9,0-1.2h0
			c-0.2,0.3-0.3,0.6-0.5,0.9l-1.5,2.2H284.7z"/>
		<path class="st4" d="M288.3,813.9L288.3,813.9c-0.5-0.4-0.9-0.8-0.9-1.5c0-1,0.8-1.6,1.8-1.6c1.1,0,1.8,0.7,1.8,1.7
			c0,0.7-0.5,1.2-0.9,1.5v0c0.6,0.3,1.1,0.8,1.1,1.6c0,0.9-0.8,1.7-2.1,1.7c-1.2,0-2.1-0.7-2.1-1.7
			C287.1,814.8,287.7,814.2,288.3,813.9z M289.2,816.7c0.7,0,1.2-0.5,1.2-1.1c0-0.8-0.8-1.1-1.7-1.5c-0.5,0.3-0.9,0.8-0.9,1.4
			C287.8,816.2,288.4,816.7,289.2,816.7z M290.3,812.5c0-0.6-0.4-1.1-1.1-1.1c-0.6,0-1,0.4-1,1c0,0.8,0.7,1.1,1.5,1.4
			C290,813.4,290.3,812.9,290.3,812.5z"/>
		<path class="st4" d="M296.3,815.5h-0.9v1.8h-0.8v-1.8h-2.9v-0.5l2.7-4.1h0.9v4h0.9V815.5z M294.7,814.8V813c0-0.3,0-0.9,0-1.2h0
			c-0.2,0.3-0.3,0.6-0.5,0.9l-1.5,2.2H294.7z"/>
		<path class="st4" d="M298.2,813.9L298.2,813.9c-0.5-0.4-0.9-0.8-0.9-1.5c0-1,0.8-1.6,1.8-1.6c1.1,0,1.8,0.7,1.8,1.7
			c0,0.7-0.5,1.2-0.9,1.5v0c0.6,0.3,1.1,0.8,1.1,1.6c0,0.9-0.8,1.7-2.1,1.7c-1.2,0-2.1-0.7-2.1-1.7
			C297,814.8,297.6,814.2,298.2,813.9z M299.1,816.7c0.7,0,1.2-0.5,1.2-1.1c0-0.8-0.8-1.1-1.7-1.5c-0.5,0.3-0.9,0.8-0.9,1.4
			C297.8,816.2,298.3,816.7,299.1,816.7z M300.2,812.5c0-0.6-0.4-1.1-1.1-1.1c-0.6,0-1,0.4-1,1c0,0.8,0.7,1.1,1.5,1.4
			C300,813.4,300.2,812.9,300.2,812.5z"/>
		<path class="st4" d="M302.2,815.9c0.4,0.4,0.9,0.7,1.6,0.7c0.8,0,1.4-0.6,1.4-1.5c0-0.9-0.5-1.4-1.4-1.4c-0.4,0-0.7,0.1-1.1,0.4
			l-0.4-0.3l0.2-3.1h3.2v0.7h-2.5l-0.2,1.9c0.3-0.2,0.6-0.3,1-0.3c1.1,0,2,0.6,2,2c0,1.4-1,2.2-2.1,2.2c-1,0-1.6-0.4-2.1-0.9
			L302.2,815.9z"/>
		<path class="st4" d="M309.5,810.7h0.8v3.3h0l2.7-3.3h0.9l-2,2.5l2.4,4.1h-0.9l-2-3.4l-1.1,1.3v2.1h-0.8V810.7z"/>
		<path class="st4" d="M317.9,814.2c0-0.6-0.2-1.2-1-1.2c-0.6,0-1.1,0.3-1.4,0.5l-0.3-0.6c0.4-0.3,1.1-0.6,1.9-0.6
			c1.2,0,1.7,0.8,1.7,2v3h-0.7l-0.1-0.6h0c-0.5,0.4-1,0.7-1.6,0.7c-0.8,0-1.4-0.5-1.4-1.4C314.9,814.9,315.9,814.4,317.9,814.2z
			 M316.6,816.7c0.5,0,0.9-0.2,1.3-0.6v-1.3c-1.6,0.2-2.2,0.6-2.2,1.2C315.7,816.5,316.1,816.7,316.6,816.7z"/>
		<path class="st4" d="M320.2,812.4h0.8v3c0,0.9,0.3,1.3,0.9,1.3c0.5,0,0.8-0.2,1.3-0.8v-3.4h0.8v4.9h-0.7l-0.1-0.8h0
			c-0.5,0.5-0.9,0.9-1.6,0.9c-1,0-1.5-0.7-1.5-1.9V812.4z"/>
		<path class="st4" d="M325.7,812.4h0.7l0.1,0.7h0c0.5-0.5,1-0.8,1.6-0.8c1,0,1.5,0.7,1.5,1.9v3.1h-0.8v-3c0-0.9-0.3-1.3-0.9-1.3
			c-0.5,0-0.8,0.3-1.3,0.7v3.5h-0.8V812.4z"/>
		<path class="st4" d="M334,814.2c0-0.6-0.2-1.2-1-1.2c-0.6,0-1.1,0.3-1.4,0.5l-0.3-0.6c0.4-0.3,1.1-0.6,1.9-0.6
			c1.2,0,1.7,0.8,1.7,2v3h-0.7l-0.1-0.6h0c-0.5,0.4-1,0.7-1.6,0.7c-0.8,0-1.4-0.5-1.4-1.4C331,814.9,331.9,814.4,334,814.2z
			 M332.6,816.7c0.5,0,0.9-0.2,1.3-0.6v-1.3c-1.6,0.2-2.2,0.6-2.2,1.2C331.8,816.5,332.1,816.7,332.6,816.7z"/>
		<path class="st4" d="M336.2,816.1c0.4,0.3,0.8,0.6,1.4,0.6c0.6,0,1-0.3,1-0.8c0-0.5-0.6-0.7-1.1-0.9c-0.7-0.2-1.4-0.6-1.4-1.4
			c0-0.8,0.6-1.4,1.7-1.4c0.6,0,1.1,0.2,1.5,0.5l-0.4,0.5c-0.3-0.2-0.7-0.4-1.1-0.4c-0.6,0-0.9,0.3-0.9,0.7c0,0.5,0.5,0.6,1.1,0.8
			c0.7,0.3,1.5,0.5,1.5,1.5c0,0.8-0.6,1.4-1.8,1.4c-0.7,0-1.3-0.3-1.8-0.7L336.2,816.1z"/>
		<path class="st4" d="M340.2,818.4c0.6-0.2,0.9-0.7,0.9-1.2c0,0-0.1,0-0.1,0c-0.3,0-0.6-0.2-0.6-0.6c0-0.4,0.3-0.6,0.6-0.6
			c0.4,0,0.7,0.4,0.7,1c0,0.9-0.5,1.5-1.3,1.9L340.2,818.4z"/>
		<path class="st4" d="M345.1,810.7h0.8v5.8h2.9v0.7h-3.7V810.7z"/>
		<path class="st4" d="M349.7,810.8c0-0.3,0.2-0.5,0.6-0.5c0.3,0,0.6,0.2,0.6,0.5c0,0.3-0.2,0.5-0.6,0.5
			C350,811.4,349.7,811.2,349.7,810.8z M349.9,812.4h0.8v4.9h-0.8V812.4z"/>
		<path class="st4" d="M352.5,813h-0.7v-0.6l0.8,0l0.1-1.4h0.7v1.4h1.3v0.7h-1.3v2.7c0,0.6,0.2,0.9,0.8,0.9c0.2,0,0.4-0.1,0.5-0.1
			l0.2,0.6c-0.3,0.1-0.6,0.2-0.9,0.2c-1,0-1.4-0.7-1.4-1.6V813z"/>
		<path class="st4" d="M355.7,810.1h0.8v1.9l0,1c0.5-0.4,0.9-0.8,1.6-0.8c1,0,1.5,0.7,1.5,1.9v3.1h-0.8v-3c0-0.9-0.3-1.3-0.9-1.3
			c-0.5,0-0.8,0.3-1.3,0.7v3.5h-0.8V810.1z"/>
		<path class="st4" d="M361.1,812.4h0.8v3c0,0.9,0.3,1.3,0.9,1.3c0.5,0,0.8-0.2,1.3-0.8v-3.4h0.8v4.9h-0.7l-0.1-0.8h0
			c-0.5,0.5-0.9,0.9-1.6,0.9c-1,0-1.5-0.7-1.5-1.9V812.4z"/>
		<path class="st4" d="M369.4,814.2c0-0.6-0.2-1.2-1-1.2c-0.6,0-1.1,0.3-1.4,0.5l-0.3-0.6c0.4-0.3,1.1-0.6,1.9-0.6
			c1.2,0,1.7,0.8,1.7,2v3h-0.7l-0.1-0.6h0c-0.5,0.4-1,0.7-1.6,0.7c-0.8,0-1.4-0.5-1.4-1.4C366.4,814.9,367.3,814.4,369.4,814.2z
			 M368,816.7c0.5,0,0.9-0.2,1.3-0.6v-1.3c-1.6,0.2-2.2,0.6-2.2,1.2C367.2,816.5,367.5,816.7,368,816.7z"/>
		<path class="st4" d="M371.7,812.4h0.7l0.1,0.7h0c0.5-0.5,1-0.8,1.6-0.8c1,0,1.5,0.7,1.5,1.9v3.1h-0.8v-3c0-0.9-0.3-1.3-0.9-1.3
			c-0.5,0-0.8,0.3-1.3,0.7v3.5h-0.8V812.4z"/>
		<path class="st4" d="M377,810.8c0-0.3,0.2-0.5,0.6-0.5c0.3,0,0.6,0.2,0.6,0.5c0,0.3-0.2,0.5-0.6,0.5
			C377.3,811.4,377,811.2,377,810.8z M377.2,812.4h0.8v4.9h-0.8V812.4z"/>
		<path class="st4" d="M382.4,814.2c0-0.6-0.2-1.2-1-1.2c-0.6,0-1.1,0.3-1.4,0.5l-0.3-0.6c0.4-0.3,1.1-0.6,1.9-0.6
			c1.2,0,1.7,0.8,1.7,2v3h-0.7l-0.1-0.6h0c-0.5,0.4-1,0.7-1.6,0.7c-0.8,0-1.4-0.5-1.4-1.4C379.4,814.9,380.3,814.4,382.4,814.2z
			 M381.1,816.7c0.5,0,0.9-0.2,1.3-0.6v-1.3c-1.6,0.2-2.2,0.6-2.2,1.2C380.2,816.5,380.6,816.7,381.1,816.7z"/>
		<path class="st4" d="M388.9,809.7h0.6v10h-0.6V809.7z"/>
		<path class="st4" d="M394.7,811.4h-2v-0.7h4.8v0.7h-2v5.9h-0.8V811.4z"/>
		<path class="st4" d="M398,816.1c0.3,0,0.6,0.3,0.6,0.6c0,0.4-0.3,0.6-0.6,0.6c-0.3,0-0.6-0.3-0.6-0.6
			C397.4,816.3,397.6,816.1,398,816.1z"/>
		<path class="st4" d="M401.4,814.2h-1.8v-0.6h1.8v-1.9h0.6v1.9h1.8v0.6H402v1.9h-0.6V814.2z"/>
		<path class="st4" d="M404.9,815.9c0.4,0.4,0.9,0.8,1.6,0.8c0.8,0,1.3-0.5,1.3-1.2c0-0.8-0.5-1.3-2-1.3v-0.6c1.4,0,1.8-0.5,1.8-1.2
			c0-0.6-0.4-1-1.1-1c-0.5,0-1,0.3-1.4,0.7l-0.4-0.5c0.5-0.5,1.1-0.8,1.8-0.8c1.1,0,1.9,0.6,1.9,1.6c0,0.8-0.5,1.3-1.2,1.5v0
			c0.8,0.2,1.4,0.7,1.4,1.6c0,1.1-0.9,1.8-2.1,1.8c-1,0-1.7-0.4-2.1-0.9L404.9,815.9z"/>
		<path class="st4" d="M412.8,811.6h-3.2v-0.7h4.1v0.5c-1.5,1.9-1.8,3.4-1.9,5.9h-0.8C411,814.8,411.5,813.3,412.8,811.6z"/>
		<path class="st4" d="M414.6,814c0-2.1,0.8-3.3,2-3.3c1.3,0,2,1.1,2,3.3s-0.8,3.3-2,3.3C415.3,817.3,414.6,816.2,414.6,814z
			 M417.9,814c0-1.9-0.5-2.6-1.2-2.6c-0.7,0-1.2,0.8-1.2,2.6s0.5,2.7,1.2,2.7C417.4,816.7,417.9,815.9,417.9,814z"/>
		<path class="st4" d="M421.9,814.5c0-1.8,0.5-3.2,1.3-4.5l0.5,0.2c-0.8,1.3-1.1,2.8-1.1,4.3c0,1.5,0.4,3,1.1,4.3l-0.5,0.2
			C422.4,817.6,421.9,816.2,421.9,814.5z"/>
		<path class="st4" d="M428.1,811.9c-0.3-0.3-0.7-0.5-1-0.5c-0.9,0-1.6,0.7-1.7,2.7c0.4-0.5,1-0.8,1.5-0.8c1.1,0,1.8,0.7,1.8,2
			c0,1.2-0.9,2-1.9,2c-1.2,0-2.2-1-2.2-3.1c0-2.6,1.2-3.5,2.4-3.5c0.7,0,1.2,0.3,1.5,0.7L428.1,811.9z M427.9,815.3
			c0-0.8-0.4-1.3-1.2-1.3c-0.4,0-0.9,0.2-1.3,0.8c0.1,1.2,0.6,1.9,1.4,1.9C427.5,816.7,427.9,816.1,427.9,815.3z"/>
		<path class="st4" d="M433.8,815.5h-0.9v1.8h-0.8v-1.8h-2.9v-0.5l2.7-4.1h0.9v4h0.9V815.5z M432.2,814.8V813c0-0.3,0-0.9,0-1.2h0
			c-0.2,0.3-0.3,0.6-0.5,0.9l-1.5,2.2H432.2z"/>
		<path class="st4" d="M434.9,816.5h1.5v-4.7h-1.2v-0.5c0.6-0.1,1-0.3,1.3-0.5h0.6v5.7h1.3v0.7h-3.6V816.5z"/>
		<path class="st4" d="M440.6,814.5c0-1.5-0.4-3-1.1-4.3l0.5-0.2c0.8,1.3,1.3,2.8,1.3,4.5s-0.5,3.2-1.3,4.5l-0.5-0.2
			C440.2,817.5,440.6,816,440.6,814.5z"/>
		<path class="st4" d="M444.8,815.9c0.4,0.4,0.9,0.8,1.6,0.8c0.8,0,1.3-0.5,1.3-1.2c0-0.8-0.5-1.3-2-1.3v-0.6c1.4,0,1.8-0.5,1.8-1.2
			c0-0.6-0.4-1-1.1-1c-0.5,0-1,0.3-1.4,0.7l-0.4-0.5c0.5-0.5,1.1-0.8,1.8-0.8c1.1,0,1.9,0.6,1.9,1.6c0,0.8-0.5,1.3-1.2,1.5v0
			c0.8,0.2,1.4,0.7,1.4,1.6c0,1.1-0.9,1.8-2.1,1.8c-1,0-1.7-0.4-2.1-0.9L444.8,815.9z"/>
		<path class="st4" d="M449.5,816.7c1.9-1.9,3-3.1,3-4.1c0-0.7-0.4-1.2-1.2-1.2c-0.5,0-1,0.3-1.4,0.8l-0.5-0.5c0.5-0.6,1.1-1,1.9-1
			c1.2,0,1.9,0.7,1.9,1.9c0,1.2-1.1,2.4-2.6,4c0.4,0,0.7-0.1,1.1-0.1h1.8v0.7h-4.1V816.7z"/>
		<path class="st4" d="M460,811.9c-0.3-0.3-0.7-0.5-1-0.5c-0.9,0-1.6,0.7-1.7,2.7c0.4-0.5,1-0.8,1.5-0.8c1.1,0,1.8,0.7,1.8,2
			c0,1.2-0.9,2-1.9,2c-1.2,0-2.2-1-2.2-3.1c0-2.6,1.2-3.5,2.4-3.5c0.7,0,1.2,0.3,1.5,0.7L460,811.9z M459.8,815.3
			c0-0.8-0.4-1.3-1.2-1.3c-0.4,0-0.9,0.2-1.3,0.8c0.1,1.2,0.6,1.9,1.4,1.9C459.4,816.7,459.8,816.1,459.8,815.3z"/>
		<path class="st4" d="M462,816.2c0.3,0.3,0.6,0.5,1,0.5c0.9,0,1.7-0.7,1.7-2.7c-0.4,0.5-1,0.8-1.5,0.8c-1.1,0-1.8-0.7-1.8-2
			c0-1.2,0.9-2,1.9-2c1.3,0,2.2,1,2.2,3.1c0,2.6-1.2,3.5-2.4,3.5c-0.7,0-1.2-0.3-1.5-0.7L462,816.2z M464.7,813.3
			c-0.1-1.2-0.6-1.9-1.4-1.9c-0.6,0-1.1,0.6-1.1,1.4c0,0.8,0.4,1.3,1.2,1.3C463.8,814.1,464.3,813.9,464.7,813.3z"/>
		<path class="st4" d="M469.6,811.6h-3.2v-0.7h4.1v0.5c-1.5,1.9-1.8,3.4-1.9,5.9h-0.8C467.9,814.8,468.4,813.3,469.6,811.6z"/>
	</g>
	<g>
		<path class="st4" d="M98,822.8c0-0.3,0.2-0.5,0.6-0.5s0.6,0.2,0.6,0.5c0,0.3-0.2,0.5-0.6,0.5S98,823.2,98,822.8z M98.1,824.4h0.8
			v4.9h-0.8V824.4z"/>
		<path class="st4" d="M100.6,824.4h0.7l0.1,0.7h0c0.5-0.5,1-0.8,1.6-0.8c1,0,1.5,0.7,1.5,1.9v3.1h-0.8v-3c0-0.9-0.3-1.3-0.9-1.3
			c-0.5,0-0.8,0.3-1.3,0.7v3.5h-0.8V824.4z"/>
		<path class="st4" d="M108.2,822.8c-0.2-0.1-0.4-0.1-0.5-0.1c-0.5,0-0.7,0.3-0.7,0.9v0.8h1v0.7h-1v4.2h-0.8V825h-0.7v-0.6l0.7,0
			v-0.8c0-1,0.4-1.6,1.4-1.6c0.3,0,0.6,0.1,0.8,0.2L108.2,822.8z"/>
		<path class="st4" d="M110.8,824.3c1.2,0,2.2,0.9,2.2,2.6c0,1.6-1.1,2.5-2.2,2.5s-2.2-0.9-2.2-2.5
			C108.5,825.2,109.6,824.3,110.8,824.3z M110.8,828.7c0.8,0,1.4-0.8,1.4-1.9c0-1.1-0.6-1.9-1.4-1.9c-0.8,0-1.4,0.8-1.4,1.9
			C109.4,827.9,109.9,828.7,110.8,828.7z"/>
		<path class="st4" d="M118.1,822.8c2,0,3.3,1.3,3.3,3.3c0,1.7-1.1,2.7-2,2.7c-0.5,0-1-0.3-1-0.8h0c-0.3,0.4-0.8,0.7-1.2,0.7
			c-0.7,0-1.2-0.5-1.2-1.4c0-1.1,0.7-2.3,1.9-2.3c0.3,0,0.6,0.2,0.8,0.5h0l0.1-0.4h0.5l-0.4,2c-0.2,0.8,0,1.2,0.5,1.2
			c0.6,0,1.3-0.8,1.3-2.1c0-1.6-0.9-2.8-2.8-2.8c-1.8,0-3.5,1.5-3.5,3.8c0,1.9,1.3,3.1,3,3.1c0.6,0,1.2-0.2,1.6-0.4l0.2,0.5
			c-0.6,0.4-1.2,0.5-1.9,0.5c-2,0-3.5-1.2-3.5-3.6C114,824.5,115.9,822.8,118.1,822.8z M117.3,828.1c0.3,0,0.6-0.2,0.9-0.6l0.3-1.6
			c-0.2-0.3-0.4-0.4-0.6-0.4c-0.8,0-1.3,0.9-1.3,1.7C116.6,827.8,116.9,828.1,117.3,828.1z"/>
		<path class="st4" d="M123.6,829.6v1.6h-0.8v-6.9h0.7l0.1,0.6h0c0.4-0.4,1-0.7,1.5-0.7c1.2,0,1.9,1,1.9,2.5c0,1.6-1,2.6-2.1,2.6
			c-0.4,0-0.9-0.2-1.3-0.6L123.6,829.6z M124.8,828.7c0.8,0,1.4-0.7,1.4-1.9c0-1.1-0.4-1.8-1.3-1.8c-0.4,0-0.8,0.2-1.3,0.7v2.5
			C124,828.5,124.5,828.7,124.8,828.7z"/>
		<path class="st4" d="M128.3,822.1h0.8v1.9l0,1c0.5-0.4,0.9-0.8,1.6-0.8c1,0,1.5,0.7,1.5,1.9v3.1h-0.8v-3c0-0.9-0.3-1.3-0.9-1.3
			c-0.5,0-0.8,0.3-1.3,0.7v3.5h-0.8V822.1z"/>
		<path class="st4" d="M136.5,826.2c0-0.6-0.2-1.2-1-1.2c-0.6,0-1.1,0.3-1.4,0.5l-0.3-0.6c0.4-0.3,1.1-0.6,1.9-0.6
			c1.2,0,1.7,0.8,1.7,2v3h-0.7l-0.1-0.6h0c-0.5,0.4-1,0.7-1.6,0.7c-0.8,0-1.4-0.5-1.4-1.4C133.5,826.9,134.4,826.4,136.5,826.2z
			 M135.2,828.7c0.5,0,0.9-0.2,1.3-0.6v-1.3c-1.6,0.2-2.2,0.6-2.2,1.2C134.3,828.5,134.7,828.7,135.2,828.7z"/>
		<path class="st4" d="M138.9,824.4h0.7l0.1,0.9h0c0.3-0.6,0.8-1,1.4-1c0.2,0,0.4,0,0.5,0.1l-0.2,0.7c-0.2-0.1-0.3-0.1-0.5-0.1
			c-0.4,0-0.9,0.3-1.2,1.1v3.1h-0.8V824.4z"/>
		<path class="st4" d="M142.3,824.4h0.7l0.1,0.7h0c0.4-0.5,0.9-0.8,1.5-0.8c0.7,0,1.1,0.3,1.3,0.9c0.5-0.5,1-0.9,1.6-0.9
			c1,0,1.5,0.7,1.5,1.9v3.1h-0.8v-3c0-0.9-0.3-1.3-0.9-1.3c-0.4,0-0.8,0.2-1.2,0.7v3.5h-0.8v-3c0-0.9-0.3-1.3-0.9-1.3
			c-0.4,0-0.8,0.2-1.2,0.7v3.5h-0.8V824.4z"/>
		<path class="st4" d="M153.4,826.2c0-0.6-0.2-1.2-1-1.2c-0.6,0-1.1,0.3-1.4,0.5l-0.3-0.6c0.4-0.3,1.1-0.6,1.9-0.6
			c1.2,0,1.7,0.8,1.7,2v3h-0.7l-0.1-0.6h0c-0.5,0.4-1,0.7-1.6,0.7c-0.8,0-1.4-0.5-1.4-1.4C150.4,826.9,151.3,826.4,153.4,826.2z
			 M152,828.7c0.5,0,0.9-0.2,1.3-0.6v-1.3c-1.6,0.2-2.2,0.6-2.2,1.2C151.2,828.5,151.6,828.7,152,828.7z"/>
		<path class="st4" d="M157.5,824.3c0.6,0,0.9,0.2,1.4,0.6l0-0.8v-1.9h0.8v7.1H159l-0.1-0.6h0c-0.4,0.4-0.9,0.7-1.5,0.7
			c-1.2,0-2-0.9-2-2.5C155.4,825.2,156.4,824.3,157.5,824.3z M157.6,828.7c0.4,0,0.8-0.2,1.2-0.7v-2.5c-0.4-0.4-0.8-0.5-1.2-0.5
			c-0.8,0-1.4,0.8-1.4,1.9C156.3,828,156.7,828.7,157.6,828.7z"/>
		<path class="st4" d="M161.3,824.4h0.7l0.1,0.7h0c0.5-0.5,1-0.8,1.6-0.8c1,0,1.5,0.7,1.5,1.9v3.1h-0.8v-3c0-0.9-0.3-1.3-0.9-1.3
			c-0.5,0-0.8,0.3-1.3,0.7v3.5h-0.8V824.4z"/>
		<path class="st4" d="M169.5,826.2c0-0.6-0.2-1.2-1-1.2c-0.6,0-1.1,0.3-1.4,0.5l-0.3-0.6c0.4-0.3,1.1-0.6,1.9-0.6
			c1.2,0,1.7,0.8,1.7,2v3h-0.7l-0.1-0.6h0c-0.5,0.4-1,0.7-1.6,0.7c-0.8,0-1.4-0.5-1.4-1.4C166.5,826.9,167.5,826.4,169.5,826.2z
			 M168.2,828.7c0.5,0,0.9-0.2,1.3-0.6v-1.3c-1.6,0.2-2.2,0.6-2.2,1.2C167.3,828.5,167.7,828.7,168.2,828.7z"/>
		<path class="st4" d="M172.3,828.1c0.3,0,0.6,0.3,0.6,0.6c0,0.4-0.3,0.6-0.6,0.6c-0.3,0-0.6-0.3-0.6-0.6
			C171.7,828.3,172,828.1,172.3,828.1z"/>
		<path class="st4" d="M176.3,824.3c0.6,0,1.1,0.3,1.4,0.6l-0.4,0.5c-0.3-0.2-0.6-0.4-1-0.4c-0.9,0-1.5,0.8-1.5,1.9
			c0,1.1,0.6,1.9,1.5,1.9c0.5,0,0.8-0.2,1.1-0.5l0.4,0.5c-0.4,0.4-1,0.6-1.6,0.6c-1.3,0-2.3-0.9-2.3-2.5
			C173.9,825.2,175,824.3,176.3,824.3z"/>
		<path class="st4" d="M180.5,824.3c1.2,0,2.2,0.9,2.2,2.6c0,1.6-1.1,2.5-2.2,2.5s-2.2-0.9-2.2-2.5
			C178.3,825.2,179.4,824.3,180.5,824.3z M180.5,828.7c0.8,0,1.4-0.8,1.4-1.9c0-1.1-0.6-1.9-1.4-1.9c-0.8,0-1.4,0.8-1.4,1.9
			C179.1,827.9,179.7,828.7,180.5,828.7z"/>
		<path class="st4" d="M184.1,824.4h0.7l0.1,0.7h0c0.4-0.5,0.9-0.8,1.5-0.8c0.7,0,1.1,0.3,1.3,0.9c0.5-0.5,1-0.9,1.6-0.9
			c1,0,1.5,0.7,1.5,1.9v3.1H190v-3c0-0.9-0.3-1.3-0.9-1.3c-0.4,0-0.8,0.2-1.2,0.7v3.5H187v-3c0-0.9-0.3-1.3-0.9-1.3
			c-0.4,0-0.8,0.2-1.2,0.7v3.5h-0.8V824.4z"/>
		<path class="st4" d="M194.5,821.7h0.6v10h-0.6V821.7z"/>
		<path class="st4" d="M198.2,824.4h0.8l0.7,2.8c0.1,0.5,0.2,0.9,0.3,1.3h0c0.1-0.5,0.2-0.9,0.3-1.3l0.7-2.8h0.8l0.8,2.8
			c0.1,0.5,0.2,0.9,0.3,1.3h0c0.1-0.5,0.2-0.9,0.3-1.3l0.7-2.8h0.8l-1.3,4.9h-1l-0.7-2.6c-0.1-0.5-0.2-0.9-0.3-1.4h0
			c-0.1,0.5-0.2,0.9-0.3,1.4l-0.7,2.6h-1L198.2,824.4z"/>
		<path class="st4" d="M205.4,824.4h0.8l0.7,2.8c0.1,0.5,0.2,0.9,0.3,1.3h0c0.1-0.5,0.2-0.9,0.3-1.3l0.7-2.8h0.8l0.8,2.8
			c0.1,0.5,0.2,0.9,0.3,1.3h0c0.1-0.5,0.2-0.9,0.3-1.3l0.7-2.8h0.8l-1.3,4.9h-1l-0.7-2.6c-0.1-0.5-0.2-0.9-0.3-1.4h0
			c-0.1,0.5-0.2,0.9-0.3,1.4l-0.7,2.6h-1L205.4,824.4z"/>
		<path class="st4" d="M212.6,824.4h0.8l0.7,2.8c0.1,0.5,0.2,0.9,0.3,1.3h0c0.1-0.5,0.2-0.9,0.3-1.3l0.7-2.8h0.8l0.8,2.8
			c0.1,0.5,0.2,0.9,0.3,1.3h0c0.1-0.5,0.2-0.9,0.3-1.3l0.7-2.8h0.8l-1.3,4.9h-1l-0.7-2.6c-0.1-0.5-0.2-0.9-0.3-1.4h0
			c-0.1,0.5-0.2,0.9-0.3,1.4l-0.7,2.6h-1L212.6,824.4z"/>
		<path class="st4" d="M220.4,828.1c0.3,0,0.6,0.3,0.6,0.6c0,0.4-0.3,0.6-0.6,0.6c-0.3,0-0.6-0.3-0.6-0.6
			C219.8,828.3,220,828.1,220.4,828.1z"/>
		<path class="st4" d="M223.2,829.6v1.6h-0.8v-6.9h0.7l0.1,0.6h0c0.4-0.4,1-0.7,1.5-0.7c1.2,0,1.9,1,1.9,2.5c0,1.6-1,2.6-2.1,2.6
			c-0.4,0-0.9-0.2-1.3-0.6L223.2,829.6z M224.4,828.7c0.8,0,1.4-0.7,1.4-1.9c0-1.1-0.4-1.8-1.3-1.8c-0.4,0-0.8,0.2-1.3,0.7v2.5
			C223.7,828.5,224.1,828.7,224.4,828.7z"/>
		<path class="st4" d="M228,822.1h0.8v1.9l0,1c0.5-0.4,0.9-0.8,1.6-0.8c1,0,1.5,0.7,1.5,1.9v3.1H231v-3c0-0.9-0.3-1.3-0.9-1.3
			c-0.5,0-0.8,0.3-1.3,0.7v3.5H228V822.1z"/>
		<path class="st4" d="M236.2,826.2c0-0.6-0.2-1.2-1-1.2c-0.6,0-1.1,0.3-1.4,0.5l-0.3-0.6c0.4-0.3,1.1-0.6,1.9-0.6
			c1.2,0,1.7,0.8,1.7,2v3h-0.7l-0.1-0.6h0c-0.5,0.4-1,0.7-1.6,0.7c-0.8,0-1.4-0.5-1.4-1.4C233.2,826.9,234.1,826.4,236.2,826.2z
			 M234.8,828.7c0.5,0,0.9-0.2,1.3-0.6v-1.3c-1.6,0.2-2.2,0.6-2.2,1.2C234,828.5,234.4,828.7,234.8,828.7z"/>
		<path class="st4" d="M238.5,824.4h0.7l0.1,0.9h0c0.3-0.6,0.8-1,1.4-1c0.2,0,0.4,0,0.5,0.1l-0.2,0.7c-0.2-0.1-0.3-0.1-0.5-0.1
			c-0.4,0-0.9,0.3-1.2,1.1v3.1h-0.8V824.4z"/>
		<path class="st4" d="M242,824.4h0.7l0.1,0.7h0c0.4-0.5,0.9-0.8,1.5-0.8c0.7,0,1.1,0.3,1.3,0.9c0.5-0.5,1-0.9,1.6-0.9
			c1,0,1.5,0.7,1.5,1.9v3.1h-0.8v-3c0-0.9-0.3-1.3-0.9-1.3c-0.4,0-0.8,0.2-1.2,0.7v3.5H245v-3c0-0.9-0.3-1.3-0.9-1.3
			c-0.4,0-0.8,0.2-1.2,0.7v3.5H242V824.4z"/>
		<path class="st4" d="M253,826.2c0-0.6-0.2-1.2-1-1.2c-0.6,0-1.1,0.3-1.4,0.5l-0.3-0.6c0.4-0.3,1.1-0.6,1.9-0.6
			c1.2,0,1.7,0.8,1.7,2v3h-0.7l-0.1-0.6h0c-0.5,0.4-1,0.7-1.6,0.7c-0.8,0-1.4-0.5-1.4-1.4C250.1,826.9,251,826.4,253,826.2z
			 M251.7,828.7c0.5,0,0.9-0.2,1.3-0.6v-1.3c-1.6,0.2-2.2,0.6-2.2,1.2C250.9,828.5,251.2,828.7,251.7,828.7z"/>
		<path class="st4" d="M257.2,824.3c0.6,0,0.9,0.2,1.4,0.6l0-0.8v-1.9h0.8v7.1h-0.7l-0.1-0.6h0c-0.4,0.4-0.9,0.7-1.5,0.7
			c-1.2,0-2-0.9-2-2.5C255.1,825.2,256.1,824.3,257.2,824.3z M257.3,828.7c0.4,0,0.8-0.2,1.2-0.7v-2.5c-0.4-0.4-0.8-0.5-1.2-0.5
			c-0.8,0-1.4,0.8-1.4,1.9C255.9,828,256.4,828.7,257.3,828.7z"/>
		<path class="st4" d="M261,824.4h0.7l0.1,0.7h0c0.5-0.5,1-0.8,1.6-0.8c1,0,1.5,0.7,1.5,1.9v3.1H264v-3c0-0.9-0.3-1.3-0.9-1.3
			c-0.5,0-0.8,0.3-1.3,0.7v3.5H261V824.4z"/>
		<path class="st4" d="M269.2,826.2c0-0.6-0.2-1.2-1-1.2c-0.6,0-1.1,0.3-1.4,0.5l-0.3-0.6c0.4-0.3,1.1-0.6,1.9-0.6
			c1.2,0,1.7,0.8,1.7,2v3h-0.7l-0.1-0.6h0c-0.5,0.4-1,0.7-1.6,0.7c-0.8,0-1.4-0.5-1.4-1.4C266.2,826.9,267.1,826.4,269.2,826.2z
			 M267.9,828.7c0.5,0,0.9-0.2,1.3-0.6v-1.3c-1.6,0.2-2.2,0.6-2.2,1.2C267,828.5,267.4,828.7,267.9,828.7z"/>
		<path class="st4" d="M272,828.1c0.3,0,0.6,0.3,0.6,0.6c0,0.4-0.3,0.6-0.6,0.6c-0.3,0-0.6-0.3-0.6-0.6
			C271.4,828.3,271.7,828.1,272,828.1z"/>
		<path class="st4" d="M275.9,824.3c0.6,0,1.1,0.3,1.4,0.6l-0.4,0.5c-0.3-0.2-0.6-0.4-1-0.4c-0.9,0-1.5,0.8-1.5,1.9
			c0,1.1,0.6,1.9,1.5,1.9c0.5,0,0.8-0.2,1.1-0.5l0.4,0.5c-0.4,0.4-1,0.6-1.6,0.6c-1.3,0-2.3-0.9-2.3-2.5
			C273.6,825.2,274.7,824.3,275.9,824.3z"/>
		<path class="st4" d="M280.2,824.3c1.2,0,2.2,0.9,2.2,2.6c0,1.6-1.1,2.5-2.2,2.5s-2.2-0.9-2.2-2.5C278,825.2,279,824.3,280.2,824.3
			z M280.2,828.7c0.8,0,1.4-0.8,1.4-1.9c0-1.1-0.6-1.9-1.4-1.9c-0.8,0-1.4,0.8-1.4,1.9C278.8,827.9,279.4,828.7,280.2,828.7z"/>
		<path class="st4" d="M283.7,824.4h0.7l0.1,0.7h0c0.4-0.5,0.9-0.8,1.5-0.8c0.7,0,1.1,0.3,1.3,0.9c0.5-0.5,1-0.9,1.6-0.9
			c1,0,1.5,0.7,1.5,1.9v3.1h-0.8v-3c0-0.9-0.3-1.3-0.9-1.3c-0.4,0-0.8,0.2-1.2,0.7v3.5h-0.8v-3c0-0.9-0.3-1.3-0.9-1.3
			c-0.4,0-0.8,0.2-1.2,0.7v3.5h-0.8V824.4z"/>
		<path class="st4" d="M294.2,821.7h0.6v10h-0.6V821.7z"/>
		<path class="st4" d="M298.6,822.7h3.8v0.7h-2.9v2.1h2.5v0.7h-2.5v2.4h3v0.7h-3.9V822.7z"/>
		<path class="st4" d="M305.5,824.3c0.6,0,0.9,0.2,1.4,0.6l0-0.8v-1.9h0.8v7.1H307l-0.1-0.6h0c-0.4,0.4-0.9,0.7-1.5,0.7
			c-1.2,0-2-0.9-2-2.5C303.4,825.2,304.4,824.3,305.5,824.3z M305.6,828.7c0.5,0,0.8-0.2,1.2-0.7v-2.5c-0.4-0.4-0.8-0.5-1.2-0.5
			c-0.8,0-1.4,0.8-1.4,1.9C304.3,828,304.7,828.7,305.6,828.7z"/>
		<path class="st4" d="M311.2,824.3c1.2,0,2.2,0.9,2.2,2.6c0,1.6-1.1,2.5-2.2,2.5c-1.2,0-2.2-0.9-2.2-2.5
			C308.9,825.2,310,824.3,311.2,824.3z M311.2,828.7c0.8,0,1.4-0.8,1.4-1.9c0-1.1-0.6-1.9-1.4-1.9c-0.8,0-1.4,0.8-1.4,1.9
			C309.8,827.9,310.4,828.7,311.2,828.7z"/>
		<path class="st4" d="M314.7,824.4h0.7l0.1,0.7h0c0.5-0.5,1-0.8,1.6-0.8c1,0,1.5,0.7,1.5,1.9v3.1h-0.8v-3c0-0.9-0.3-1.3-0.9-1.3
			c-0.5,0-0.8,0.3-1.3,0.7v3.5h-0.8V824.4z"/>
		<path class="st4" d="M320.1,824.4h0.8v3c0,0.9,0.3,1.3,0.9,1.3c0.5,0,0.8-0.2,1.3-0.8v-3.4h0.8v4.9h-0.7l-0.1-0.8h0
			c-0.5,0.5-0.9,0.9-1.6,0.9c-1,0-1.5-0.7-1.5-1.9V824.4z"/>
		<path class="st4" d="M325.6,824.4h0.7l0.1,0.7h0c0.4-0.5,0.9-0.8,1.5-0.8c0.7,0,1.1,0.3,1.3,0.9c0.5-0.5,1-0.9,1.6-0.9
			c1,0,1.5,0.7,1.5,1.9v3.1h-0.8v-3c0-0.9-0.3-1.3-0.9-1.3c-0.4,0-0.8,0.2-1.2,0.7v3.5h-0.8v-3c0-0.9-0.3-1.3-0.9-1.3
			c-0.4,0-0.8,0.2-1.2,0.7v3.5h-0.8V824.4z"/>
		<path class="st4" d="M336,822.7h0.8v3.9c0,1.6,0.7,2.1,1.5,2.1c0.9,0,1.5-0.5,1.5-2.1v-3.9h0.8v3.8c0,2.1-1,2.8-2.3,2.8
			c-1.3,0-2.4-0.7-2.4-2.8V822.7z"/>
		<path class="st4" d="M345.3,827.2h-2.4l-0.6,2h-0.8l2.2-6.6h0.9l2.2,6.6h-0.9L345.3,827.2z M345.1,826.6l-0.3-1
			c-0.2-0.7-0.4-1.4-0.7-2.2h0c-0.2,0.8-0.4,1.5-0.6,2.2l-0.3,1H345.1z"/>
		<path class="st4" d="M347.7,822.7h1.9c1.3,0,2.2,0.5,2.2,1.6c0,0.6-0.4,1.2-1.1,1.4v0c1,0.2,1.5,0.7,1.5,1.6c0,1.3-1,1.9-2.5,1.9
			h-2.1V822.7z M349.5,825.5c1.1,0,1.6-0.4,1.6-1.1c0-0.7-0.5-1-1.5-1h-1v2.1H349.5z M349.7,828.6c1.1,0,1.8-0.4,1.8-1.3
			c0-0.8-0.6-1.2-1.8-1.2h-1.1v2.5H349.7z"/>
		<path class="st4" d="M355.4,827.9c0.4,0.4,0.9,0.8,1.6,0.8c0.8,0,1.3-0.5,1.3-1.2c0-0.8-0.5-1.3-2-1.3v-0.6c1.4,0,1.8-0.5,1.8-1.2
			c0-0.6-0.4-1-1.1-1c-0.5,0-1,0.3-1.4,0.7l-0.4-0.5c0.5-0.5,1.1-0.8,1.8-0.8c1.1,0,1.9,0.6,1.9,1.6c0,0.8-0.5,1.3-1.2,1.5v0
			c0.8,0.2,1.4,0.7,1.4,1.6c0,1.1-0.9,1.8-2.1,1.8c-1,0-1.7-0.4-2.1-0.9L355.4,827.9z"/>
		<path class="st4" d="M360.1,826c0-2.1,0.8-3.3,2-3.3c1.3,0,2,1.1,2,3.3s-0.8,3.3-2,3.3C360.9,829.3,360.1,828.2,360.1,826z
			 M363.4,826c0-1.9-0.5-2.6-1.2-2.6c-0.7,0-1.2,0.8-1.2,2.6s0.5,2.7,1.2,2.7C362.9,828.7,363.4,827.9,363.4,826z"/>
		<path class="st4" d="M365.1,828.7c1.9-1.9,3-3.1,3-4.1c0-0.7-0.4-1.2-1.2-1.2c-0.5,0-1,0.3-1.4,0.8l-0.5-0.5c0.5-0.6,1.1-1,1.9-1
			c1.2,0,1.9,0.7,1.9,1.9c0,1.2-1.1,2.4-2.6,4c0.3,0,0.7-0.1,1.1-0.1h1.8v0.7h-4.1V828.7z"/>
		<path class="st4" d="M370.3,827.9c0.4,0.4,0.9,0.8,1.6,0.8c0.8,0,1.3-0.5,1.3-1.2c0-0.8-0.5-1.3-2-1.3v-0.6c1.4,0,1.8-0.5,1.8-1.2
			c0-0.6-0.4-1-1.1-1c-0.5,0-1,0.3-1.4,0.7l-0.4-0.5c0.5-0.5,1.1-0.8,1.8-0.8c1.1,0,1.9,0.6,1.9,1.6c0,0.8-0.5,1.3-1.2,1.5v0
			c0.8,0.2,1.4,0.7,1.4,1.6c0,1.1-0.9,1.8-2.1,1.8c-1,0-1.7-0.4-2.1-0.9L370.3,827.9z"/>
		<path class="st4" d="M375.1,826c0-2.1,0.8-3.3,2-3.3c1.3,0,2,1.1,2,3.3s-0.8,3.3-2,3.3C375.8,829.3,375.1,828.2,375.1,826z
			 M378.3,826c0-1.9-0.5-2.6-1.2-2.6c-0.7,0-1.2,0.8-1.2,2.6s0.5,2.7,1.2,2.7C377.8,828.7,378.3,827.9,378.3,826z"/>
		<path class="st4" d="M380,826c0-2.1,0.8-3.3,2-3.3c1.3,0,2,1.1,2,3.3s-0.8,3.3-2,3.3C380.8,829.3,380,828.2,380,826z M383.3,826
			c0-1.9-0.5-2.6-1.2-2.6c-0.7,0-1.2,0.8-1.2,2.6s0.5,2.7,1.2,2.7C382.8,828.7,383.3,827.9,383.3,826z"/>
		<path class="st4" d="M385.3,828.5h1.5v-4.7h-1.2v-0.5c0.6-0.1,1-0.3,1.3-0.5h0.6v5.7h1.3v0.7h-3.6V828.5z"/>
		<path class="st4" d="M390,826c0-2.1,0.8-3.3,2-3.3c1.3,0,2,1.1,2,3.3s-0.8,3.3-2,3.3C390.7,829.3,390,828.2,390,826z M393.3,826
			c0-1.9-0.5-2.6-1.2-2.6c-0.7,0-1.2,0.8-1.2,2.6s0.5,2.7,1.2,2.7C392.8,828.7,393.3,827.9,393.3,826z"/>
		<path class="st4" d="M398.5,823.9c-0.3-0.3-0.7-0.5-1-0.5c-0.9,0-1.6,0.7-1.7,2.7c0.4-0.5,1-0.8,1.5-0.8c1.1,0,1.8,0.7,1.8,2
			c0,1.2-0.9,2-1.9,2c-1.2,0-2.2-1-2.2-3.1c0-2.6,1.2-3.5,2.4-3.5c0.7,0,1.2,0.3,1.5,0.7L398.5,823.9z M398.3,827.3
			c0-0.8-0.4-1.3-1.2-1.3c-0.4,0-0.9,0.2-1.3,0.8c0.1,1.2,0.6,1.9,1.4,1.9C397.8,828.7,398.3,828.1,398.3,827.3z"/>
		<path class="st4" d="M402.4,821.7h0.6v10h-0.6V821.7z"/>
		<path class="st4" d="M405.9,822.7h0.9l1,3.5c0.2,0.8,0.4,1.4,0.6,2.2h0c0.2-0.8,0.4-1.4,0.6-2.2l1-3.5h0.8l-2.1,6.6h-1
			L405.9,822.7z"/>
		<path class="st4" d="M414.8,827.2h-2.4l-0.6,2H411l2.2-6.6h0.9l2.2,6.6h-0.9L414.8,827.2z M414.6,826.6l-0.3-1
			c-0.2-0.7-0.4-1.4-0.7-2.2h0c-0.2,0.8-0.4,1.5-0.6,2.2l-0.3,1H414.6z"/>
		<path class="st4" d="M418.2,823.4h-2v-0.7h4.8v0.7h-2v5.9h-0.8V823.4z"/>
		<path class="st4" d="M424.2,824.4h0.7l0.1,0.7h0c0.5-0.5,1-0.8,1.6-0.8c1,0,1.5,0.7,1.5,1.9v3.1h-0.8v-3c0-0.9-0.3-1.3-0.9-1.3
			c-0.5,0-0.8,0.3-1.3,0.7v3.5h-0.8V824.4z"/>
		<path class="st4" d="M429.6,824.4h0.7l0.1,0.9h0c0.3-0.6,0.8-1,1.4-1c0.2,0,0.4,0,0.5,0.1l-0.2,0.7c-0.2-0.1-0.3-0.1-0.5-0.1
			c-0.4,0-0.9,0.3-1.2,1.1v3.1h-0.8V824.4z"/>
		<path class="st4" d="M435.2,822.7h0.8v5.8h2.9v0.7h-3.7V822.7z"/>
		<path class="st4" d="M440.2,823.4h-2v-0.7h4.8v0.7h-2v5.9h-0.8V823.4z"/>
		<path class="st4" d="M444.1,828.5h1.5v-4.7h-1.2v-0.5c0.6-0.1,1-0.3,1.3-0.5h0.6v5.7h1.3v0.7h-3.6V828.5z"/>
		<path class="st4" d="M448.7,826c0-2.1,0.8-3.3,2-3.3c1.3,0,2,1.1,2,3.3s-0.8,3.3-2,3.3C449.5,829.3,448.7,828.2,448.7,826z
			 M452,826c0-1.9-0.5-2.6-1.2-2.6c-0.7,0-1.2,0.8-1.2,2.6s0.5,2.7,1.2,2.7C451.5,828.7,452,827.9,452,826z"/>
		<path class="st4" d="M453.7,826c0-2.1,0.8-3.3,2-3.3c1.3,0,2,1.1,2,3.3s-0.8,3.3-2,3.3C454.5,829.3,453.7,828.2,453.7,826z
			 M457,826c0-1.9-0.5-2.6-1.2-2.6c-0.7,0-1.2,0.8-1.2,2.6s0.5,2.7,1.2,2.7C456.5,828.7,457,827.9,457,826z"/>
		<path class="st4" d="M458.7,826c0-2.1,0.8-3.3,2-3.3c1.3,0,2,1.1,2,3.3s-0.8,3.3-2,3.3C459.5,829.3,458.7,828.2,458.7,826z
			 M462,826c0-1.9-0.5-2.6-1.2-2.6c-0.7,0-1.2,0.8-1.2,2.6s0.5,2.7,1.2,2.7C461.5,828.7,462,827.9,462,826z"/>
		<path class="st4" d="M463.7,826c0-2.1,0.8-3.3,2-3.3c1.3,0,2,1.1,2,3.3s-0.8,3.3-2,3.3C464.4,829.3,463.7,828.2,463.7,826z
			 M466.9,826c0-1.9-0.5-2.6-1.2-2.6c-0.7,0-1.2,0.8-1.2,2.6s0.5,2.7,1.2,2.7C466.4,828.7,466.9,827.9,466.9,826z"/>
		<path class="st4" d="M472.2,823.9c-0.3-0.3-0.7-0.5-1-0.5c-0.9,0-1.6,0.7-1.7,2.7c0.4-0.5,1-0.8,1.5-0.8c1.1,0,1.8,0.7,1.8,2
			c0,1.2-0.9,2-1.9,2c-1.2,0-2.2-1-2.2-3.1c0-2.6,1.2-3.5,2.4-3.5c0.7,0,1.2,0.3,1.5,0.7L472.2,823.9z M472,827.3
			c0-0.8-0.4-1.3-1.2-1.3c-0.4,0-0.9,0.2-1.3,0.8c0.1,1.2,0.6,1.9,1.4,1.9C471.5,828.7,472,828.1,472,827.3z"/>
		<path class="st4" d="M476.8,823.6h-3.2v-0.7h4.1v0.5c-1.5,1.9-1.8,3.4-1.9,5.9h-0.8C475,826.8,475.5,825.3,476.8,823.6z"/>
		<path class="st4" d="M478.8,827.9c0.4,0.4,0.9,0.7,1.6,0.7c0.8,0,1.4-0.6,1.4-1.5c0-0.9-0.5-1.4-1.4-1.4c-0.4,0-0.7,0.1-1.1,0.4
			l-0.4-0.3l0.2-3.1h3.2v0.7h-2.5l-0.2,1.9c0.3-0.2,0.6-0.3,1-0.3c1.1,0,2,0.6,2,2c0,1.4-1,2.2-2.1,2.2c-1,0-1.6-0.4-2.1-0.9
			L478.8,827.9z"/>
		<path class="st4" d="M483.9,828.5h1.5v-4.7h-1.2v-0.5c0.6-0.1,1-0.3,1.3-0.5h0.6v5.7h1.3v0.7h-3.6V828.5z"/>
		<path class="st4" d="M488.8,828.5h1.5v-4.7h-1.2v-0.5c0.6-0.1,1-0.3,1.3-0.5h0.6v5.7h1.3v0.7h-3.6V828.5z"/>
		<path class="st4" d="M493.8,828.5h1.5v-4.7h-1.2v-0.5c0.6-0.1,1-0.3,1.3-0.5h0.6v5.7h1.3v0.7h-3.6V828.5z"/>
		<path class="st4" d="M502,823.9c-0.3-0.3-0.7-0.5-1-0.5c-0.9,0-1.6,0.7-1.7,2.7c0.4-0.5,1-0.8,1.5-0.8c1.1,0,1.8,0.7,1.8,2
			c0,1.2-0.9,2-1.9,2c-1.2,0-2.2-1-2.2-3.1c0-2.6,1.2-3.5,2.4-3.5c0.7,0,1.2,0.3,1.5,0.7L502,823.9z M501.8,827.3
			c0-0.8-0.4-1.3-1.2-1.3c-0.4,0-0.9,0.2-1.3,0.8c0.1,1.2,0.6,1.9,1.4,1.9C501.3,828.7,501.8,828.1,501.8,827.3z"/>
	</g>
	<g>
		<path class="st11" d="M242.3,716.8h1.4l0.7,4c0.1,0.8,0.3,1.7,0.4,2.5h0c0.2-0.8,0.3-1.7,0.5-2.5l1-4h1.2l1,4
			c0.2,0.8,0.3,1.7,0.5,2.5h0c0.1-0.8,0.3-1.7,0.4-2.5l0.7-4h1.3l-1.5,7.8h-1.7l-1-4.1c-0.1-0.6-0.3-1.2-0.3-1.8h0
			c-0.1,0.6-0.2,1.2-0.4,1.8l-0.9,4.1h-1.7L242.3,716.8z"/>
		<path class="st11" d="M253,722.9c0.5,0,0.9,0.4,0.9,0.9c0,0.5-0.4,0.9-0.9,0.9c-0.5,0-0.9-0.4-0.9-0.9
			C252.1,723.3,252.5,722.9,253,722.9z"/>
		<path class="st11" d="M262,722.5h-2.6l-0.6,2.1h-1.4l2.6-7.8h1.6l2.6,7.8h-1.5L262,722.5z M261.7,721.4l-0.3-1
			c-0.3-0.8-0.5-1.7-0.7-2.6h0c-0.2,0.9-0.4,1.8-0.7,2.6l-0.3,1H261.7z"/>
		<path class="st11" d="M265.8,722.9c0.5,0,0.9,0.4,0.9,0.9c0,0.5-0.4,0.9-0.9,0.9c-0.5,0-0.9-0.4-0.9-0.9
			C264.9,723.3,265.3,722.9,265.8,722.9z"/>
		<path class="st11" d="M270.3,718.8h1.4l0.9,3.1c0.2,0.6,0.3,1.2,0.5,1.8h0c0.2-0.6,0.3-1.2,0.5-1.8l0.9-3.1h1.3l-2,5.9h-1.6
			L270.3,718.8z"/>
		<path class="st11" d="M280.1,720.9c0-0.6-0.3-1.2-1.1-1.2c-0.6,0-1.1,0.3-1.7,0.6l-0.5-0.9c0.6-0.4,1.5-0.8,2.4-0.8
			c1.5,0,2.2,0.9,2.2,2.5v3.5h-1.1l-0.1-0.6h0c-0.5,0.4-1.1,0.8-1.8,0.8c-1,0-1.8-0.7-1.8-1.7C276.6,721.8,277.7,721.1,280.1,720.9z
			 M278.8,723.7c0.5,0,0.9-0.2,1.3-0.6v-1.3c-1.6,0.2-2.1,0.6-2.1,1.2C278,723.5,278.3,723.7,278.8,723.7z"/>
		<path class="st11" d="M283.2,718.8h1.1l0.1,0.8h0c0.5-0.5,1.1-0.9,1.9-0.9c1.3,0,1.8,0.9,1.8,2.3v3.7h-1.4v-3.5
			c0-1-0.3-1.3-0.9-1.3c-0.5,0-0.9,0.3-1.3,0.7v4.1h-1.4V718.8z"/>
		<path class="st11" d="M292.8,716.8h1.4v3.2h3.2v-3.2h1.4v7.8h-1.4v-3.5h-3.2v3.5h-1.4V716.8z"/>
		<path class="st11" d="M303.9,720.9c0-0.6-0.3-1.2-1.1-1.2c-0.6,0-1.1,0.3-1.7,0.6l-0.5-0.9c0.6-0.4,1.5-0.8,2.4-0.8
			c1.5,0,2.2,0.9,2.2,2.5v3.5h-1.1l-0.1-0.6h0c-0.5,0.4-1.1,0.8-1.8,0.8c-1,0-1.8-0.7-1.8-1.7C300.5,721.8,301.5,721.1,303.9,720.9z
			 M302.7,723.7c0.5,0,0.9-0.2,1.3-0.6v-1.3c-1.6,0.2-2.1,0.6-2.1,1.2C301.8,723.5,302.2,723.7,302.7,723.7z"/>
		<path class="st11" d="M309.4,718.6c1.6,0,2.4,1.2,2.4,2.8c0,0.3,0,0.5-0.1,0.6h-3.7c0.1,1.1,0.8,1.7,1.7,1.7
			c0.5,0,0.9-0.2,1.4-0.4l0.5,0.9c-0.6,0.4-1.3,0.6-2,0.6c-1.6,0-2.9-1.1-2.9-3.1C306.7,719.8,308.1,718.6,309.4,718.6z
			 M310.7,721.2c0-0.9-0.4-1.5-1.2-1.5c-0.7,0-1.3,0.5-1.4,1.5H310.7z"/>
		<path class="st11" d="M313.3,718.8h1.1l0.1,1h0c0.4-0.8,1-1.2,1.7-1.2c0.3,0,0.5,0,0.7,0.1l-0.2,1.2c-0.2-0.1-0.4-0.1-0.6-0.1
			c-0.5,0-1,0.3-1.4,1.2v3.6h-1.4V718.8z"/>
		<path class="st11" d="M317.8,716.9c0-0.5,0.4-0.8,0.9-0.8c0.5,0,0.9,0.3,0.9,0.8c0,0.5-0.4,0.8-0.9,0.8
			C318.1,717.7,317.8,717.4,317.8,716.9z M317.9,718.8h1.4v5.9h-1.4V718.8z"/>
		<path class="st11" d="M321.2,718.8h1.1l0.1,0.8h0c0.5-0.5,1.1-0.9,1.9-0.9c1.3,0,1.8,0.9,1.8,2.3v3.7h-1.4v-3.5
			c0-1-0.3-1.3-0.9-1.3c-0.5,0-0.9,0.3-1.3,0.7v4.1h-1.4V718.8z"/>
		<path class="st11" d="M328.4,724.5L328.4,724.5c-0.3-0.2-0.5-0.6-0.5-1c0-0.5,0.3-0.9,0.6-1.1v0c-0.4-0.3-0.8-0.9-0.8-1.6
			c0-1.4,1.1-2.1,2.3-2.1c0.3,0,0.6,0.1,0.9,0.1h2.1v1H332c0.2,0.2,0.3,0.6,0.3,1c0,1.3-1,2-2.2,2c-0.3,0-0.5,0-0.8-0.2
			c-0.2,0.2-0.3,0.3-0.3,0.6c0,0.3,0.2,0.5,1,0.5h1c1.4,0,2.2,0.4,2.2,1.5c0,1.2-1.2,2.1-3.1,2.1c-1.4,0-2.4-0.5-2.4-1.5
			C327.6,725.2,327.9,724.8,328.4,724.5z M330.3,726.3c0.9,0,1.6-0.4,1.6-0.9c0-0.5-0.4-0.6-1-0.6H330c-0.3,0-0.6,0-0.8-0.1
			c-0.3,0.2-0.5,0.5-0.5,0.8C328.8,726,329.3,726.3,330.3,726.3z M331.1,720.7c0-0.7-0.4-1.2-1-1.2c-0.6,0-1,0.4-1,1.2
			c0,0.8,0.5,1.2,1,1.2C330.7,721.9,331.1,721.5,331.1,720.7z"/>
		<path class="st11" d="M336.5,718.6c1.6,0,2.4,1.2,2.4,2.8c0,0.3,0,0.5-0.1,0.6h-3.7c0.1,1.1,0.8,1.7,1.7,1.7
			c0.5,0,0.9-0.2,1.4-0.4l0.5,0.9c-0.6,0.4-1.3,0.6-2,0.6c-1.6,0-2.9-1.1-2.9-3.1C333.8,719.8,335.1,718.6,336.5,718.6z
			 M337.7,721.2c0-0.9-0.4-1.5-1.2-1.5c-0.7,0-1.3,0.5-1.4,1.5H337.7z"/>
		<path class="st11" d="M340.4,718.8h1.1l0.1,0.8h0c0.5-0.5,1.1-0.9,1.9-0.9c1.3,0,1.8,0.9,1.8,2.3v3.7H344v-3.5
			c0-1-0.3-1.3-0.9-1.3c-0.5,0-0.9,0.3-1.3,0.7v4.1h-1.4V718.8z"/>
		<path class="st11" d="M346.9,726.1c0.8-0.3,1.2-0.8,1.2-1.5c0,0-0.1,0-0.1,0c-0.5,0-0.9-0.3-0.9-0.9c0-0.5,0.4-0.9,0.9-0.9
			c0.6,0,1,0.5,1,1.4c0,1.2-0.7,2.1-1.9,2.5L346.9,726.1z"/>
	</g>
	<g>
		<path class="st11" d="M243.2,728.7h2.2c1.8,0,2.8,0.6,2.8,2.2c0,1.5-1.1,2.3-2.8,2.3h-1.6v3.4h-0.6V728.7z M245.3,732.8
			c1.6,0,2.4-0.5,2.4-1.8c0-1.3-0.8-1.7-2.4-1.7h-1.5v3.6H245.3z"/>
		<path class="st11" d="M249.9,728h0.5v2.5v1.3c0.6-0.6,1.2-1,2-1c1.2,0,1.7,0.7,1.7,2.2v3.7h-0.5V733c0-1.2-0.4-1.8-1.3-1.8
			c-0.7,0-1.2,0.4-1.9,1.1v4.3h-0.5V728z"/>
		<path class="st11" d="M256.3,728.7h1.8c2.4,0,3.6,1.5,3.6,3.9c0,2.4-1.2,4-3.6,4h-1.8V728.7z M258.1,736.2c2.1,0,3.1-1.5,3.1-3.5
			c0-2.1-0.9-3.5-3.1-3.5h-1.2v7H258.1z"/>
		<path class="st11" d="M265.9,728.7h4.3v0.5h-3.8v3h3.2v0.5h-3.2v3.5h3.9v0.5h-4.4V728.7z"/>
		<path class="st11" d="M273.1,733.6l-1.8-2.7h0.6l0.9,1.5c0.2,0.3,0.4,0.6,0.6,0.9h0c0.2-0.3,0.4-0.6,0.6-0.9l0.9-1.5h0.6l-1.8,2.8
			l2,3h-0.6l-1-1.6c-0.2-0.4-0.4-0.7-0.7-1.1h0c-0.2,0.3-0.4,0.7-0.7,1.1l-1,1.6h-0.6L273.1,733.6z"/>
		<path class="st11" d="M278.8,730.7c1.4,0,2.2,1,2.2,2.7c0,0.1,0,0.3,0,0.4h-4.1c0,1.5,0.9,2.5,2.2,2.5c0.6,0,1.1-0.2,1.5-0.5
			l0.2,0.4c-0.5,0.3-1,0.6-1.8,0.6c-1.5,0-2.7-1.1-2.7-3S277.5,730.7,278.8,730.7z M280.5,733.4c0-1.5-0.7-2.2-1.7-2.2
			c-1,0-1.9,0.9-2,2.2H280.5z"/>
		<path class="st11" d="M284.7,730.7c0.8,0,1.3,0.3,1.7,0.7l-0.3,0.4c-0.4-0.3-0.8-0.6-1.4-0.6c-1.2,0-2.1,1-2.1,2.6
			c0,1.5,0.8,2.5,2.1,2.5c0.6,0,1.1-0.3,1.5-0.7l0.3,0.4c-0.5,0.4-1.1,0.8-1.8,0.8c-1.5,0-2.6-1.1-2.6-3
			C282.1,731.8,283.3,730.7,284.7,730.7z"/>
		<path class="st11" d="M287.9,730.9h0.5v3.6c0,1.2,0.4,1.8,1.3,1.8c0.7,0,1.2-0.4,1.9-1.2v-4.2h0.5v5.8h-0.4l-0.1-1h0
			c-0.6,0.7-1.2,1.1-2,1.1c-1.2,0-1.7-0.7-1.7-2.2V730.9z"/>
		<path class="st11" d="M294.4,731.3h-0.9v-0.4l0.9,0l0.1-1.7h0.5v1.7h1.7v0.5H295v3.8c0,0.7,0.2,1.2,1,1.2c0.2,0,0.5-0.1,0.7-0.2
			l0.1,0.4c-0.3,0.1-0.7,0.2-0.9,0.2c-1.1,0-1.4-0.7-1.4-1.7V731.3z"/>
		<path class="st11" d="M297.9,729c0-0.3,0.2-0.5,0.5-0.5s0.5,0.2,0.5,0.5c0,0.3-0.2,0.5-0.5,0.5S297.9,729.3,297.9,729z
			 M298.1,730.9h0.5v5.8h-0.5V730.9z"/>
		<path class="st11" d="M299.8,730.9h0.6l1.3,3.6c0.2,0.6,0.4,1.1,0.6,1.7h0c0.2-0.5,0.4-1.1,0.6-1.7l1.3-3.6h0.5l-2.1,5.8H302
			L299.8,730.9z"/>
		<path class="st11" d="M308,730.7c1.4,0,2.2,1,2.2,2.7c0,0.1,0,0.3,0,0.4h-4.2c0,1.5,0.9,2.5,2.2,2.5c0.6,0,1.1-0.2,1.5-0.5
			l0.2,0.4c-0.5,0.3-1,0.6-1.8,0.6c-1.5,0-2.7-1.1-2.7-3S306.8,730.7,308,730.7z M309.7,733.4c0-1.5-0.7-2.2-1.7-2.2
			c-1,0-1.9,0.9-2,2.2H309.7z"/>
		<path class="st11" d="M314.3,728.7h1.8c2.4,0,3.6,1.5,3.6,3.9c0,2.4-1.2,4-3.6,4h-1.8V728.7z M316,736.2c2.1,0,3.1-1.5,3.1-3.5
			c0-2.1-0.9-3.5-3.1-3.5h-1.2v7H316z"/>
		<path class="st11" d="M321.2,729c0-0.3,0.2-0.5,0.5-0.5c0.3,0,0.5,0.2,0.5,0.5c0,0.3-0.2,0.5-0.5,0.5
			C321.5,729.5,321.2,729.3,321.2,729z M321.4,730.9h0.5v5.8h-0.5V730.9z"/>
		<path class="st11" d="M324.2,730.9h0.5l0,1.1h0c0.4-0.7,0.9-1.2,1.6-1.2c0.2,0,0.4,0,0.6,0.1l-0.1,0.5c-0.2-0.1-0.3-0.1-0.5-0.1
			c-0.5,0-1.1,0.4-1.6,1.5v3.9h-0.5V730.9z"/>
		<path class="st11" d="M329.9,730.7c1.4,0,2.2,1,2.2,2.7c0,0.1,0,0.3,0,0.4h-4.2c0,1.5,0.9,2.5,2.2,2.5c0.6,0,1.1-0.2,1.5-0.5
			l0.2,0.4c-0.5,0.3-1,0.6-1.8,0.6c-1.5,0-2.7-1.1-2.7-3S328.6,730.7,329.9,730.7z M331.6,733.4c0-1.5-0.7-2.2-1.7-2.2
			c-1,0-1.9,0.9-2,2.2H331.6z"/>
		<path class="st11" d="M335.8,730.7c0.8,0,1.3,0.3,1.7,0.7l-0.3,0.4c-0.4-0.3-0.8-0.6-1.4-0.6c-1.2,0-2.1,1-2.1,2.6
			c0,1.5,0.8,2.5,2.1,2.5c0.6,0,1.1-0.3,1.5-0.7l0.3,0.4c-0.5,0.4-1.1,0.8-1.8,0.8c-1.5,0-2.6-1.1-2.6-3
			C333.2,731.8,334.4,730.7,335.8,730.7z"/>
		<path class="st11" d="M339.2,731.3h-0.9v-0.4l0.9,0l0.1-1.7h0.5v1.7h1.7v0.5h-1.7v3.8c0,0.7,0.2,1.2,1,1.2c0.2,0,0.5-0.1,0.7-0.2
			l0.1,0.4c-0.3,0.1-0.7,0.2-0.9,0.2c-1.1,0-1.4-0.7-1.4-1.7V731.3z"/>
		<path class="st11" d="M344.8,730.7c1.4,0,2.6,1.1,2.6,3c0,1.9-1.2,3-2.6,3c-1.4,0-2.6-1.1-2.6-3
			C342.2,731.8,343.4,730.7,344.8,730.7z M344.8,736.3c1.2,0,2-1,2-2.5c0-1.5-0.9-2.6-2-2.6s-2,1-2,2.6
			C342.8,735.3,343.6,736.3,344.8,736.3z"/>
		<path class="st11" d="M349.1,730.9h0.5l0,1.1h0c0.4-0.7,0.9-1.2,1.6-1.2c0.2,0,0.4,0,0.6,0.1l-0.1,0.5c-0.2-0.1-0.3-0.1-0.5-0.1
			c-0.5,0-1.1,0.4-1.6,1.5v3.9h-0.5V730.9z"/>
	</g>
	<g>
		<path class="st5" d="M20.2,266.9h2.9c3.9,0,5.7,2.4,5.7,6.2c0,3.8-1.8,6.3-5.7,6.3h-2.9V266.9z M23,278.7c3.4,0,4.9-2.3,4.9-5.6
			c0-3.2-1.5-5.5-4.9-5.5h-1.9v11H23z"/>
		<path class="st5" d="M32.4,266.9h0.9l5.3,8.8l1.4,2.5h0.1c0-1.2-0.1-2.4-0.1-3.6v-7.7h0.8v12.5h-0.9l-5.3-8.8l-1.4-2.5h-0.1
			c0,1.2,0.1,2.3,0.1,3.6v7.8h-0.8V266.9z"/>
		<path class="st5" d="M50.9,275.1h-5l-1.5,4.3h-0.9l4.4-12.5h0.9l4.4,12.5h-0.9L50.9,275.1z M50.6,274.4l-0.8-2.3
			c-0.5-1.5-0.9-2.8-1.4-4.3h-0.1c-0.4,1.5-0.9,2.8-1.4,4.3l-0.8,2.3H50.6z"/>
		<path class="st5" d="M60.6,266.9H64c2.8,0,4.5,0.9,4.5,3.5c0,2.5-1.7,3.6-4.5,3.6h-2.5v5.4h-0.9V266.9z M63.8,273.3
			c2.5,0,3.8-0.9,3.8-2.9c0-2.1-1.2-2.8-3.8-2.8h-2.3v5.7H63.8z"/>
		<path class="st5" d="M78.9,279.4l-3.4-5.8h-2.7v5.8h-0.9v-12.5h3.6c2.5,0,4.1,0.9,4.1,3.3c0,2-1.2,3.2-3.2,3.4l3.5,5.8H78.9z
			 M75.3,272.9c2.2,0,3.4-0.9,3.4-2.7c0-1.9-1.2-2.6-3.4-2.6h-2.5v5.3H75.3z"/>
		<path class="st5" d="M82.5,273.1c0-4,2.1-6.4,5.1-6.4c3,0,5.2,2.5,5.2,6.4c0,4-2.1,6.5-5.2,6.5C84.7,279.7,82.5,277.1,82.5,273.1z
			 M91.9,273.1c0-3.5-1.7-5.6-4.2-5.6c-2.5,0-4.2,2.2-4.2,5.6c0,3.5,1.7,5.7,4.2,5.7C90.2,278.9,91.9,276.6,91.9,273.1z"/>
		<path class="st5" d="M96.5,266.9h6.8v0.8h-5.9v5h5v0.8h-5v6h-0.9V266.9z"/>
		<path class="st5" d="M106.3,266.9h0.9v12.5h-0.9V266.9z"/>
		<path class="st5" d="M111.6,266.9h0.9v11.8h5.8v0.8h-6.6V266.9z"/>
		<path class="st5" d="M121.2,266.9h6.9v0.8h-6v4.7h5v0.8h-5v5.5h6.2v0.8h-7V266.9z"/>
	</g>
	<g>
		<path class="st5" d="M24.7,669.7c1.4,0,2.6,0.7,3.2,1.5l-0.5,0.6c-0.7-0.8-1.6-1.3-2.7-1.3c-2.8,0-4.4,2.2-4.4,5.7
			s1.7,5.7,4.4,5.7c1.3,0,2.2-0.5,3.2-1.5l0.5,0.6c-1,1.1-2.1,1.8-3.7,1.8c-3.1,0-5.2-2.5-5.2-6.5C19.4,672.2,21.6,669.7,24.7,669.7
			z"/>
		<path class="st5" d="M31.7,669.9h6.9v0.8h-6v4.7h5v0.8h-5v5.5h6.2v0.8h-7V669.9z"/>
		<path class="st5" d="M49.1,682.5l-3.4-5.8h-2.7v5.8h-0.9v-12.5h3.6c2.5,0,4.1,0.9,4.1,3.3c0,2-1.2,3.2-3.2,3.4l3.5,5.8H49.1z
			 M45.6,676c2.2,0,3.4-0.9,3.4-2.7c0-1.9-1.2-2.6-3.4-2.6h-2.5v5.3H45.6z"/>
		<path class="st5" d="M55.9,670.7h-4v-0.8h8.9v0.8h-4v11.8h-0.9V670.7z"/>
		<path class="st5" d="M63.9,669.9h0.9v12.5h-0.9V669.9z"/>
		<path class="st5" d="M69.3,669.9h6.8v0.8h-5.9v5h5v0.8h-5v6h-0.9V669.9z"/>
		<path class="st5" d="M79.1,669.9H80v12.5h-0.9V669.9z"/>
		<path class="st5" d="M84.4,669.9h6.9v0.8h-6v4.7h5v0.8h-5v5.5h6.2v0.8h-7V669.9z"/>
		<path class="st5" d="M94.9,669.9h2.9c3.9,0,5.7,2.4,5.7,6.2c0,3.8-1.8,6.3-5.7,6.3h-2.9V669.9z M97.7,681.7c3.4,0,4.9-2.3,4.9-5.6
			c0-3.2-1.5-5.5-4.9-5.5h-1.9v11H97.7z"/>
		<path class="st5" d="M111.7,669.9h3.4c2.5,0,4.1,1,4.1,3c0,1.3-0.8,2.4-2.2,2.7v0.1c1.8,0.3,3,1.3,3,3c0,2.4-1.8,3.6-4.7,3.6h-3.6
			V669.9z M114.8,675.4c2.6,0,3.6-0.8,3.6-2.5c0-1.6-1.2-2.3-3.5-2.3h-2.3v4.8H114.8z M115.1,681.7c2.5,0,4-0.9,4-2.9
			c0-1.8-1.5-2.7-4-2.7h-2.5v5.6H115.1z"/>
		<path class="st5" d="M125.2,677.4l-3.7-7.4h0.9l1.9,3.9c0.4,0.9,0.8,1.8,1.3,2.7h0.1c0.5-0.9,0.9-1.8,1.3-2.7l1.9-3.9h0.9
			l-3.8,7.4v5.1h-0.9V677.4z"/>
	</g>
	<g>
		<path class="st5" d="M20.2,424.7h2.9c3.9,0,5.7,2.4,5.7,6.2c0,3.8-1.8,6.3-5.7,6.3h-2.9V424.7z M23,436.5c3.4,0,4.9-2.3,4.9-5.6
			c0-3.2-1.5-5.5-4.9-5.5h-1.9v11H23z"/>
		<path class="st5" d="M32.4,424.7h0.9l5.3,8.8L40,436h0.1c0-1.2-0.1-2.4-0.1-3.6v-7.7h0.8v12.5h-0.9l-5.3-8.8l-1.4-2.5h-0.1
			c0,1.2,0.1,2.3,0.1,3.6v7.8h-0.8V424.7z"/>
		<path class="st5" d="M50.9,432.9h-5l-1.5,4.3h-0.9l4.4-12.5h0.9l4.4,12.5h-0.9L50.9,432.9z M50.6,432.2l-0.8-2.3
			c-0.5-1.5-0.9-2.8-1.4-4.3h-0.1c-0.4,1.5-0.9,2.8-1.4,4.3l-0.8,2.3H50.6z"/>
		<path class="st5" d="M60.6,424.7h1.2l2.6,7.4l1,2.8h0.1l0.9-2.8l2.6-7.4h1.2v12.5h-0.9V429c0-1,0.1-2.3,0.1-3.4h-0.1l-1,2.8
			l-2.7,7.5H65l-2.7-7.5l-1-2.8h-0.1c0.1,1,0.1,2.4,0.1,3.4v8.2h-0.8V424.7z"/>
		<path class="st5" d="M80.3,432.9h-5l-1.5,4.3H73l4.4-12.5h0.9l4.4,12.5h-0.9L80.3,432.9z M80.1,432.2l-0.8-2.3
			c-0.5-1.5-0.9-2.8-1.4-4.3h-0.1c-0.4,1.5-0.9,2.8-1.4,4.3l-0.8,2.3H80.1z"/>
		<path class="st5" d="M92.4,437.2l-3.4-5.8h-2.7v5.8h-0.9v-12.5h3.6c2.5,0,4.1,0.9,4.1,3.3c0,2-1.2,3.2-3.2,3.4l3.5,5.8H92.4z
			 M88.8,430.7c2.2,0,3.4-0.9,3.4-2.7c0-1.9-1.2-2.6-3.4-2.6h-2.5v5.3H88.8z"/>
		<path class="st5" d="M96.9,424.7h0.9v7h0l6.1-7h1l-4,4.6l4.5,7.9h-1l-4.1-7.2l-2.5,2.9v4.3h-0.9V424.7z"/>
		<path class="st5" d="M108.2,424.7h6.9v0.8h-6v4.7h5v0.8h-5v5.5h6.2v0.8h-7V424.7z"/>
		<path class="st5" d="M125.7,437.2l-3.4-5.8h-2.7v5.8h-0.9v-12.5h3.6c2.5,0,4.1,0.9,4.1,3.3c0,2-1.2,3.2-3.2,3.4l3.5,5.8H125.7z
			 M122.1,430.7c2.2,0,3.4-0.9,3.4-2.7c0-1.9-1.2-2.6-3.4-2.6h-2.5v5.3H122.1z"/>
		<path class="st5" d="M129.5,434.9c0.9,1,2.2,1.7,3.7,1.7c1.9,0,3.1-1,3.1-2.5c0-1.6-1-2.1-2.2-2.6l-1.9-0.9
			c-1.1-0.5-2.5-1.3-2.5-3.1c0-1.8,1.6-3.1,3.6-3.1c1.5,0,2.7,0.7,3.5,1.5l-0.5,0.6c-0.7-0.8-1.7-1.3-3-1.3c-1.7,0-2.8,0.9-2.8,2.2
			c0,1.4,1.3,2,2.2,2.4l1.9,0.8c1.4,0.6,2.6,1.4,2.6,3.3s-1.6,3.4-4,3.4c-1.8,0-3.2-0.8-4.2-1.9L129.5,434.9z"/>
	</g>
	<path d="M426.2,713.4c-0.3,0.1-7,2.7-15.5,6c0-0.2,0-0.4,0-0.6c0-1.6-0.3-3.3-0.5-4.6c-0.1-0.6-0.3-1.1-0.5-1.4
		c-0.2-0.3-0.5-0.6-0.8-0.6c-0.3,0-0.5,0.1-0.8,0.3c-0.7,0.6-1.5,2-2.6,4.1c-0.8,1.6-1.5,3.5-2.1,5.5c-1.2,0.5-2.4,1-3.7,1.4
		c0.1-0.7,0.2-1.4,0.3-2c0.5-2.7,0.8-4.9,1.2-6.1c0.3-0.9,0.6-1.4,0.9-1.7c0.2-0.3,0.3-0.3,0.4-0.3l0,0l0,0c0.1,0.1,0.2,0,0.3-0.1
		c0.1-0.1,0-0.3-0.1-0.3c0,0-0.1-0.1-0.3-0.1c-0.2,0-0.5,0.1-0.8,0.4c-0.3,0.3-0.6,0.9-0.9,1.8c-0.5,1.3-0.8,3.4-1.3,6.1
		c-0.1,0.7-0.3,1.5-0.4,2.3c-8.9,3.5-17.5,7.1-21.5,9c-3.9,1.9-6.2,2.9-7.6,3.5l-2.1,0.6l-0.1,0.1c0,0-0.1,0.1-0.1,0.2l0.1,0.2
		l0.2,0c0.2,0,0.7-0.1,2.1-0.7c0,0,0,0,0,0l12.7-4l3.1-0.5c-0.2,0.1-0.3,0.3-0.5,0.4c-0.3,0.3-0.7,0.6-0.9,0.8
		c-0.1,0.1-0.2,0.3-0.3,0.4c-0.1,0.1-0.1,0.2-0.2,0.4c0,0.1,0,0.2,0.1,0.3c0.1,0.1,0.2,0.1,0.3,0.1c0.5,0.1,1.5,0.1,2.3,0.1
		c0.4,0,0.8,0.1,1.1,0.2c0.3,0.1,0.5,0.2,0.5,0.4c0.2,0.5,0.8,1,1.7,1.4c0.9,0.4,2.1,0.7,3.5,0.7c0,0,0,0,0,0c0.1,0.4,0.3,0.7,0.4,1
		c0.2,0.4,0.4,0.7,0.6,0.8c0.1,0.1,0.3,0.2,0.5,0.2c0.1,0,0.2,0,0.3-0.1c0.3-0.3,0.6-0.8,1-2c0,0,0,0,0,0c0.3,0,0.7,0,1,0
		c1,0,1.8,0,2.4,0.1c0.6,0,0.9,0.1,0.9,0.1l0.2-0.1l0.1-0.2c0,0,0-0.1,0-0.2c-0.1-0.4-0.2-1.3-0.2-2.4c0-1,0.1-2.1,0.4-3.3
		c0.2-0.8,0.5-1.8,0.8-2.9c1.1-0.1,2-0.5,2.7-0.9c1-0.6,1.8-1.5,3.3-2.4c1.8-1.1,2.4-3.3,2.6-5.4c8.6-3.3,15.4-5.8,15.7-5.9
		C426.6,713.8,426.4,713.4,426.2,713.4z M406.1,717c0.7-1.4,1.3-2.5,1.8-3.2c0.3-0.4,0.5-0.6,0.7-0.8c0.2-0.2,0.4-0.2,0.4-0.2
		c0.1,0,0.2,0.1,0.4,0.3c0.2,0.2,0.3,0.7,0.4,1.3c0.3,1.3,0.5,2.9,0.5,4.5c0,0.3,0,0.5,0,0.8c-2,0.8-4.1,1.6-6.2,2.4
		C404.7,720.2,405.3,718.5,406.1,717z M403.4,722.6c-0.6,1.8-1.2,3.9-1.6,5.5c-0.2,0-0.4,0-0.6,0c-0.3,0-0.5,0-0.8,0
		c-0.4,0-0.9-0.1-1.3-0.1c0.3-1.3,0.5-2.7,0.7-3.9C400.9,723.6,402.2,723.1,403.4,722.6z M390.4,736.5c-0.8-0.4-1.3-0.8-1.4-1.2
		c-0.2-0.3-0.5-0.5-0.8-0.6c-0.5-0.2-1.2-0.2-1.9-0.3c-0.6,0-1.2,0-1.5-0.1c0.1-0.1,0.2-0.3,0.4-0.4c0.4-0.4,0.9-0.8,1.3-1.1
		c0.4-0.3,0.8-0.6,0.8-0.6c0.1-0.1,0.1-0.2,0.1-0.3c0-0.1-0.2-0.2-0.3-0.2l-4.1,0.7l0,0l-8.5,2.7c1-0.5,2.2-1,3.6-1.7
		c3.9-1.9,12.5-5.6,21.3-9.1c-0.2,1.1-0.6,2.5-0.8,3.7c-0.3,0-0.7,0-1,0c-1.3,0-2.5,0.1-3.3,0.7c-0.8,0.6-1.3,1.7-1.3,3.3
		c0,2.1,0.3,3.8,0.7,5.1c0,0,0,0,0,0.1C392.3,737.1,391.2,736.8,390.4,736.5z M393.4,732c0-1.6,0.4-2.4,1.1-2.9
		c0.7-0.5,1.7-0.7,3-0.7c0.3,0,0.6,0,0.9,0c-0.2,1-0.4,2-0.7,3.1c-0.6,2.5-1.1,4.2-1.5,5.4c-0.5,0-1,0-1.6,0.1c-0.2,0-0.3,0-0.5,0
		C393.7,735.9,393.4,734.2,393.4,732z M395.9,737.8c-0.2,0.6-0.4,0.9-0.5,1.1c-0.1,0.1-0.1,0.2-0.2,0.2l0,0l-0.1-0.1
		c-0.1-0.1-0.3-0.3-0.5-0.7c-0.1-0.2-0.2-0.5-0.3-0.8c0.1,0,0.3,0,0.4,0c0.5,0,0.9-0.1,1.3-0.1C396,737.6,396,737.7,395.9,737.8z
		 M400.8,731.3c-0.3,1.2-0.4,2.4-0.4,3.4c0,1.1,0.1,1.9,0.2,2.4c-0.5,0-1.6-0.1-3-0.1c-0.3,0-0.6,0-0.8,0c0.4-1.2,0.8-2.9,1.4-5.3
		c0.3-1.1,0.5-2.2,0.7-3.2c0.4,0,0.9,0,1.3,0.1c0.3,0,0.6,0,0.9,0c0.2,0,0.3,0,0.5,0C401.3,729.6,401,730.6,400.8,731.3z
		 M407.9,724.7c-1.5,1-2.4,1.8-3.3,2.4c-0.7,0.4-1.3,0.7-2.3,0.8c0.5-1.6,1.1-3.8,1.7-5.6c2.2-0.9,4.2-1.6,6.2-2.4
		C410,721.9,409.4,723.8,407.9,724.7z"/>
	<path d="M395.6,718.3c0,0-1.3,5.1-1.3,8.7c0,0.8,0.1,1.5,0.2,2.1c0.2,0.6,0.4,1.1,0.9,1.3c0.2,0.1,0.5,0.2,0.8,0.2
		c0.7,0,1.3-0.4,1.8-1c1.6-1.7,2.7-5,2.7-5l-0.2-0.1l-0.2,0c0,0-0.1,0.9-0.1,2c0,0.9,0,2,0.2,2.8c0.1,0.4,0.2,0.8,0.3,1.1
		c0.1,0.1,0.2,0.3,0.3,0.4c0.1,0.1,0.3,0.2,0.4,0.2c0.2,0,0.5-0.1,0.7-0.3c0.2-0.2,0.4-0.5,0.7-0.9c2.6-4.2,4.3-10.7,4.3-10.7
		l-0.2-0.1l-0.2,0c0,0,0.1,1.8,0.2,3.9c0.1,2.1,0.4,4.4,0.7,5.5c0.7,2.1,0.7,2.1,0.7,2.1c0,0.1,0.2,0.2,0.3,0.2
		c0.1,0,0.2-0.2,0.2-0.3c0,0,0,0-0.7-2.1c-0.3-1-0.6-3.3-0.7-5.4c-0.1-2.1-0.2-3.9-0.2-3.9c0-0.1-0.1-0.2-0.2-0.2
		c-0.1,0-0.2,0.1-0.3,0.2c0,0-0.1,0.4-0.3,1.1c-0.6,2-2,6.4-3.9,9.5c-0.2,0.4-0.4,0.6-0.6,0.8c-0.2,0.2-0.3,0.2-0.3,0.2l-0.1,0
		c-0.1-0.1-0.2-0.2-0.3-0.5c-0.2-0.8-0.3-2.2-0.3-3.4c0-1.1,0.1-2,0.1-2c0-0.1-0.1-0.2-0.2-0.3c-0.1,0-0.2,0-0.3,0.2
		c0,0-0.1,0.4-0.4,0.9c-0.3,0.8-0.9,2-1.6,3c-0.3,0.5-0.7,0.9-1.1,1.3c-0.4,0.3-0.7,0.5-1.1,0.5c-0.2,0-0.3,0-0.5-0.1
		c-0.3-0.2-0.5-0.5-0.7-1c-0.1-0.5-0.2-1.2-0.2-2c0-1.8,0.3-3.9,0.7-5.6c0.2-0.9,0.3-1.6,0.5-2.1c0.1-0.5,0.2-0.8,0.2-0.8
		c0-0.1,0-0.3-0.2-0.3C395.8,718.1,395.6,718.2,395.6,718.3L395.6,718.3z"/>
</g>
</svg>
